<?xml version="1.0" encoding="utf-8"?><svg viewBox="0 0 269 63" xmlns="http://www.w3.org/2000/svg" xmlns:xlink="http://www.w3.org/1999/xlink"><style>:root>svg{display:none}:root>svg:target{display:block}</style><svg viewBox="0 0 21 13" id="arrow_next" xmlns="http://www.w3.org/2000/svg"><path d="M20.758 6.227l-7.265 5.393V.834l7.265 5.393zM.001 6.419h19.374"/></svg><svg viewBox="0 0 22 13" id="arrow_prev" xmlns="http://www.w3.org/2000/svg"><path d="M1.047 6.5L8.37 1.187l-.118 10.785L1.047 6.5zM21.805 6.535L2.432 6.323"/></svg><svg viewBox="0 0 269 61" id="button" xmlns="http://www.w3.org/2000/svg"><path d="M.5.5h268v60H.5z"/><path d="M0 1h244l-27.835 60H0V1zM252 28.688l3.134 2.722L252 34.133v-5.446zM243 31.54h10.552"/></svg><svg viewBox="0 0 11 21" id="facebook" xmlns="http://www.w3.org/2000/svg"><path d="M6.813 7.219V4.594c0-.725.588-1.313 1.312-1.313h1.313V0H6.812a3.937 3.937 0 00-3.937 3.938v3.28H.25V10.5h2.625V21h3.938V10.5h2.625l1.312-3.281H6.812z"/></svg><svg viewBox="0 0 47 47" id="help" xmlns="http://www.w3.org/2000/svg"><path d="M47 31.808c0-6.851-4.616-12.837-11.125-14.64C35.465 7.632 27.58 0 17.946 0 8.051 0 0 8.05 0 17.946c0 3.225.858 6.365 2.489 9.122L.066 35.826l8.758-2.422a17.88 17.88 0 008.343 2.47C18.971 42.384 24.957 47 31.807 47c2.735 0 5.394-.728 7.73-2.112l7.397 2.046-2.046-7.396A15.138 15.138 0 0047 31.808zM9.259 30.426l-5.243 1.45 1.45-5.242-.33-.517a15.141 15.141 0 01-2.382-8.17c0-8.378 6.815-15.193 15.192-15.193 8.377 0 15.193 6.815 15.193 15.192 0 8.377-6.816 15.193-15.193 15.193-2.907 0-5.732-.824-8.17-2.382l-.517-.33zm33.725 12.558l-3.89-1.076-.52.338a12.39 12.39 0 01-6.766 2c-5.385 0-10.116-3.481-11.793-8.474 8.245-.95 14.807-7.511 15.758-15.757 4.992 1.677 8.473 6.408 8.473 11.793a12.39 12.39 0 01-2 6.766l-.338.52 1.076 3.89z"/><path d="M16.57 24.877h2.753v2.754H16.57v-2.754zM20.7 13.77c0 .782-.318 1.503-.896 2.032l-3.235 2.96v3.361h2.754v-2.148l2.34-2.14a5.524 5.524 0 001.791-4.066 5.514 5.514 0 00-5.508-5.507 5.514 5.514 0 00-5.508 5.508h2.754a2.757 2.757 0 012.754-2.754A2.757 2.757 0 0120.7 13.77z"/></svg><svg viewBox="0 0 32 46" id="lamp" xmlns="http://www.w3.org/2000/svg"><path d="M16 0C7.471 0 .532 6.939.532 15.468c0 5.389 2.826 10.4 7.408 13.203l.495 3.65c.234 1.728 1.665 3.031 3.328 3.031h8.474c1.663 0 3.094-1.303 3.328-3.03l.495-3.651a15.506 15.506 0 007.408-13.203C31.468 6.938 24.527 0 16 0zm6.584 27.125a1.04 1.04 0 00-.518.766l-.562 4.151c-.094.69-.65 1.23-1.267 1.23h-8.474c-.617 0-1.173-.54-1.267-1.23l-.562-4.151a1.04 1.04 0 00-.518-.766 13.421 13.421 0 01-6.803-11.658C2.613 8.086 8.618 2.08 16 2.08c7.382 0 13.387 6.006 13.387 13.388a13.42 13.42 0 01-6.803 11.657zm-1.136 9.406H10.552a1.04 1.04 0 100 2.08h10.896a1.04 1.04 0 100-2.08zm-1.319 3.259H11.87a1.04 1.04 0 00-1.04 1.041c0 2.85 2.319 5.17 5.169 5.17 2.85 0 5.169-2.32 5.169-5.17a1.04 1.04 0 00-1.04-1.04zM16 43.92a3.094 3.094 0 01-2.908-2.049h5.816A3.094 3.094 0 0116 43.92z"/><path d="M22.593 16.076c0-.02 0-.039-.002-.058a1.031 1.031 0 00-.01-.1l-.01-.046-.01-.05-.015-.051-.014-.044a1.153 1.153 0 00-.02-.052l-.019-.042a.93.93 0 00-.075-.131 1.037 1.037 0 00-.034-.048l-.011-.016-.016-.018a1.015 1.015 0 00-.414-.305.916.916 0 00-.098-.034l-.023-.007-.02-.005a1.031 1.031 0 00-.105-.02l-.048-.005a1.169 1.169 0 00-.055-.004h-.102l-.042.004a1.06 1.06 0 00-.057.007l-.046.009-.05.01-.05.015-.046.015a.98.98 0 00-.05.02l-.044.02a.966.966 0 00-.13.074.944.944 0 00-.049.034l-.016.011-2.136 1.672-2.136-1.672a1.04 1.04 0 00-1.282 0l-2.135 1.671-2.136-1.67c-.005-.005-.01-.008-.016-.012a.964.964 0 00-.088-.06l-.044-.025a1.01 1.01 0 00-.047-.024l-.042-.018a1.002 1.002 0 00-.052-.021l-.044-.014-.051-.015-.05-.011c-.016-.003-.031-.007-.047-.009l-.056-.007-.043-.003a.927.927 0 00-.058-.002h-.043a1.025 1.025 0 00-.208.03l-.02.004-.023.008a1.113 1.113 0 00-.24.104.97.97 0 00-.233.19.953.953 0 00-.039.044l-.016.018-.012.018a1.12 1.12 0 00-.059.087c-.009.014-.016.029-.024.043a1.029 1.029 0 00-.025.049l-.018.04a1.097 1.097 0 00-.021.053l-.014.043a.998.998 0 00-.015.052l-.011.049-.009.048a1.071 1.071 0 00-.007.055l-.004.044a.977.977 0 000 .058v.043a1.094 1.094 0 00.03.207l.003.021 4.004 14.973a1.04 1.04 0 102.01-.537l-3.2-11.969.327.256a1.038 1.038 0 001.282 0L16 17.4l2.135 1.671a1.04 1.04 0 001.283 0l.327-.256-3.2 11.969a1.04 1.04 0 002.01.537l4.003-14.973.005-.02a1.049 1.049 0 00.03-.208v-.043z"/></svg><svg viewBox="0 0 25 63" id="line_up" xmlns="http://www.w3.org/2000/svg"><path d="M2 62.5V0m22.5 2H3"/></svg><svg viewBox="0 0 20 20" id="phone" xmlns="http://www.w3.org/2000/svg"><g clip-path="url(#hclip0)"><path d="M8.543 11.459C6.677 9.592 6.255 7.726 6.16 6.978a.67.67 0 01.193-.561l1.51-1.51a.674.674 0 00.095-.834L5.553.338A.674.674 0 004.68.092L.819 1.911a.67.67 0 00-.371.67C.65 4.502 1.488 9.227 6.13 13.87s9.366 5.48 11.289 5.683a.67.67 0 00.67-.371l1.818-3.86a.674.674 0 00-.244-.873l-3.735-2.405a.674.674 0 00-.834.095l-1.51 1.51a.67.67 0 01-.56.193c-.749-.095-2.615-.517-4.482-2.383z"/><path d="M15.955 10.452a.674.674 0 01-.674-.674 5.063 5.063 0 00-5.058-5.058.674.674 0 110-1.348 6.413 6.413 0 016.406 6.406.674.674 0 01-.674.674z"/><path d="M19.327 10.452a.674.674 0 01-.675-.674 8.439 8.439 0 00-8.429-8.43.674.674 0 010-1.348 9.789 9.789 0 019.778 9.778.675.675 0 01-.674.674z"/></g><defs><clipPath id="hclip0"><path transform="translate(.444)" d="M0 0h19.556v19.556H0z"/></clipPath></defs></svg><svg viewBox="0 0 37 43" id="shield" xmlns="http://www.w3.org/2000/svg"><path d="M35.605 6.963L19.145.128a1.68 1.68 0 00-1.29 0L1.396 6.963A1.68 1.68 0 00.359 8.514v8.308a28.13 28.13 0 0017.506 26.053 1.68 1.68 0 001.27 0A28.13 28.13 0 0036.64 16.822V8.514a1.68 1.68 0 00-1.036-1.551zm-2.324 9.86c0 9.724-5.71 18.677-14.781 22.673C9.672 35.606 3.719 26.81 3.719 16.822V9.635L18.5 3.498l14.781 6.137v7.187zm-16.638 5.66l7.22-7.219a1.68 1.68 0 112.375 2.376l-8.407 8.407a1.68 1.68 0 01-2.375 0l-4.694-4.694a1.68 1.68 0 112.375-2.376l3.506 3.507z"/></svg><svg viewBox="0 0 34 46" id="tablet" xmlns="http://www.w3.org/2000/svg"><path d="M33.191 3.678h-8.979v-.67a2.3 2.3 0 00-2.3-2.3h-9.824a2.3 2.3 0 00-2.299 2.3v.67H.81a.656.656 0 00-.657.657v40.3a.656.656 0 00.657.656h32.38a.656.656 0 00.657-.656v-40.3a.656.656 0 00-.657-.657zM28.64 8.69v31.414H5.36V8.69h23.28zM11.1 3.007a.987.987 0 01.988-.986h9.825a.987.987 0 01.985.986v4.37H11.1v-4.37zM32.535 43.98H1.465V4.99h8.323v2.386H4.704a.656.656 0 00-.657.656V40.76a.656.656 0 00.657.657h24.592a.656.656 0 00.656-.657V8.033a.656.656 0 00-.656-.656h-5.084V4.991h8.323v38.988z"/><path d="M8.62 28.002h5.898a.656.656 0 00.656-.656V22.44l1.32-1.322a.657.657 0 00-.927-.927l-.702.701a.65.65 0 00-.348-.101H8.62a.657.657 0 00-.656.656v5.898a.656.656 0 00.656.656zm.655-5.898h4.379l-2.081 2.081-.523-.523a.656.656 0 00-.928.928l.987.987a.656.656 0 00.928 0l1.824-1.824v2.937H9.275v-4.586zM8.62 37.658h5.898a.656.656 0 00.656-.656v-4.905l1.32-1.321a.658.658 0 00-.207-1.08.658.658 0 00-.72.152l-.702.701a.651.651 0 00-.348-.101H8.62a.657.657 0 00-.656.656v5.898a.656.656 0 00.656.656zm.655-5.898h4.379l-2.081 2.081-.523-.523a.656.656 0 00-.928.928l.987.987a.656.656 0 00.928 0l1.824-1.824v2.937H9.275V31.76zM8.62 18.346h5.898a.656.656 0 00.656-.656v-4.906l1.32-1.32a.656.656 0 00-.927-.929l-.702.702a.65.65 0 00-.348-.102H8.62a.657.657 0 00-.656.657v5.898a.656.656 0 00.656.656zm.655-5.898h4.379l-2.081 2.08-.523-.522a.657.657 0 10-.928.927l.987.988a.657.657 0 00.928 0l1.824-1.824v2.936H9.275v-4.585zm8.345 2.949h7.76a.656.656 0 100-1.313h-7.76a.656.656 0 100 1.313zm0 9.656h7.76a.656.656 0 100-1.312h-7.76a.656.656 0 100 1.312zm0 9.657h7.76a.656.656 0 000-1.313h-7.76a.656.656 0 100 1.312z"/></svg><svg viewBox="0 0 20 20" id="telegram" xmlns="http://www.w3.org/2000/svg"><g clip-path="url(#kclip0)"><path d="M.568 9.429l4.506 1.681 1.744 5.61a.53.53 0 00.842.253l2.512-2.047a.75.75 0 01.913-.026l4.53 3.29a.53.53 0 00.833-.322l3.318-15.963a.531.531 0 00-.711-.604L.562 8.435a.531.531 0 00.006.994zm5.969.786l8.806-5.424c.158-.097.321.117.185.243L8.26 11.79c-.255.238-.42.556-.467.902l-.247 1.834c-.033.245-.377.27-.445.032l-.952-3.345a.887.887 0 01.388-.998z"/></g><defs><clipPath id="kclip0"><path transform="translate(.222)" d="M0 0h19.556v19.556H0z"/></clipPath></defs></svg><svg viewBox="0 0 20 18" id="twitter" xmlns="http://www.w3.org/2000/svg"><path d="M20 2.799a8.549 8.549 0 01-2.363.647 4.077 4.077 0 001.804-2.266 8.192 8.192 0 01-2.6.992A4.099 4.099 0 009.75 4.976c0 .325.027.638.095.935-3.409-.166-6.425-1.8-8.451-4.288A4.128 4.128 0 00.83 3.694a4.11 4.11 0 001.821 3.408A4.05 4.05 0 01.8 6.598v.045a4.119 4.119 0 003.285 4.028 4.09 4.09 0 01-1.075.135c-.262 0-.527-.015-.776-.07.531 1.624 2.038 2.818 3.831 2.856a8.238 8.238 0 01-5.084 1.75A7.67 7.67 0 010 15.284a11.543 11.543 0 006.29 1.84c7.545 0 11.67-6.25 11.67-11.668 0-.18-.006-.356-.015-.53A8.179 8.179 0 0020 2.8z"/></svg><svg viewBox="0 0 20 20" id="whatsapp" xmlns="http://www.w3.org/2000/svg"><path fill-rule="evenodd" clip-rule="evenodd" d="M16.263 3.266A9.026 9.026 0 009.836.602C4.83.602.754 4.677.752 9.686c0 1.6.417 3.164 1.212 4.541L.676 18.935l4.816-1.263a9.075 9.075 0 004.34 1.105h.005c5.007 0 9.082-4.075 9.084-9.084a9.029 9.029 0 00-2.658-6.427zM9.836 17.243h-.003a7.542 7.542 0 01-3.843-1.052l-.275-.164-2.858.75.763-2.787-.18-.285a7.532 7.532 0 01-1.154-4.019c.001-4.163 3.389-7.55 7.554-7.55a7.5 7.5 0 015.338 2.214 7.506 7.506 0 012.21 5.342c-.002 4.164-3.39 7.551-7.552 7.551zm4.142-5.655c-.227-.114-1.343-.663-1.55-.739-.209-.075-.36-.113-.511.114-.152.227-.587.739-.72.89-.132.152-.264.17-.491.057-.227-.114-.958-.354-1.826-1.127-.674-.602-1.13-1.345-1.262-1.572-.133-.228-.001-.339.1-.463.245-.306.491-.626.567-.777.075-.151.038-.284-.02-.398-.056-.113-.51-1.23-.699-1.685-.184-.443-.371-.383-.51-.39a9.074 9.074 0 00-.436-.008.834.834 0 00-.605.284c-.208.228-.795.777-.795 1.894s.814 2.197.927 2.348c.114.152 1.6 2.444 3.878 3.428.541.234.964.373 1.294.478a3.113 3.113 0 001.43.09c.436-.065 1.343-.55 1.532-1.08.19-.53.19-.984.132-1.079-.056-.095-.208-.151-.435-.265z"/></svg></svg>