<svg width="47" height="47" viewBox="0 0 47 47" fill="none" xmlns="http://www.w3.org/2000/svg">
<path d="M47 31.8076C47 24.9569 42.384 18.9715 35.8746 17.1678C35.4655 7.63205 27.581 0 17.9463 0C8.05051 0 0 8.05051 0 17.9463C0 21.1714 0.858444 24.3115 2.48856 27.0682L0.065979 35.8262L8.82433 33.404C11.3584 34.9025 14.217 35.7466 17.1674 35.8739C18.9708 42.3836 24.9566 47 31.8076 47C34.5422 47 37.2014 46.2717 39.5379 44.888L46.9337 46.9337L44.888 39.5379C46.2717 37.2014 47 34.5422 47 31.8076ZM9.25893 30.4264L4.01575 31.8768L5.46622 26.6336L5.1356 26.1166C3.57757 23.6789 2.75391 20.8537 2.75391 17.9463C2.75391 9.56911 9.56911 2.75391 17.9463 2.75391C26.3235 2.75391 33.1387 9.56911 33.1387 17.9463C33.1387 26.3235 26.3235 33.1387 17.9463 33.1387C15.0389 33.1387 12.214 32.315 9.77601 30.757L9.25893 30.4264ZM42.9842 42.9842L39.0936 41.9078L38.5741 42.2459C36.5599 43.5544 34.2198 44.2461 31.8076 44.2461C26.4232 44.2461 21.6917 40.7646 20.0153 35.7725C28.2605 34.8219 34.8219 28.2605 35.7728 20.0149C40.7646 21.6917 44.2461 26.4232 44.2461 31.8076C44.2461 34.2198 43.5544 36.5599 42.2459 38.5741L41.9078 39.0936L42.9842 42.9842Z" fill="#DDA955"/>
<path d="M16.5693 24.877H19.3232V27.6309H16.5693V24.877Z" fill="#DDA955"/>
<path d="M20.7002 13.7695C20.7002 14.5516 20.3818 15.2734 19.8037 15.8023L16.5693 18.7628V22.123H19.3232V19.9755L21.663 17.8341C22.8011 16.7924 23.4541 15.3111 23.4541 13.7695C23.4541 10.7323 20.9835 8.26172 17.9463 8.26172C14.9091 8.26172 12.4385 10.7323 12.4385 13.7695H15.1924C15.1924 12.2509 16.4277 11.0156 17.9463 11.0156C19.4649 11.0156 20.7002 12.2509 20.7002 13.7695Z" fill="#DDA955"/>
</svg>
