<svg width="32" height="46" viewBox="0 0 32 46" fill="none" xmlns="http://www.w3.org/2000/svg">
<path d="M16 0C7.47108 0 0.532349 6.93873 0.532349 15.4676C0.532349 20.8566 3.35767 25.8678 7.94 28.6707L8.43462 32.3214C8.66878 34.0491 10.0997 35.352 11.7633 35.352H20.2367C21.9003 35.352 23.3312 34.0491 23.5652 32.3214L24.0598 28.6707C28.6422 25.8678 31.4675 20.8565 31.4675 15.4676C31.4676 6.93873 24.5289 0 16 0ZM22.5844 27.1255C22.3015 27.2857 22.1098 27.5688 22.0661 27.891L21.5036 32.042C21.4103 32.7314 20.8537 33.2715 20.2367 33.2715H11.7633C11.1462 33.2715 10.5897 32.7314 10.4963 32.0419L9.93388 27.8909C9.89019 27.5687 9.69848 27.2855 9.41554 27.1254C5.21954 24.7499 2.61287 20.2829 2.61287 15.4675C2.61277 8.08587 8.61822 2.08042 16 2.08042C23.3817 2.08042 29.3872 8.08587 29.3872 15.4676C29.3872 20.283 26.7805 24.7501 22.5844 27.1255Z" fill="#DDA955"/>
<path d="M21.4478 36.5312H10.5519C9.97742 36.5312 9.51172 36.9969 9.51172 37.5714C9.51172 38.1459 9.97742 38.6116 10.5519 38.6116H21.4478C22.0223 38.6116 22.488 38.1459 22.488 37.5714C22.488 36.9969 22.0223 36.5312 21.4478 36.5312Z" fill="#DDA955"/>
<path d="M20.1289 39.7908H11.8711C11.2966 39.7908 10.8309 40.2565 10.8309 40.831C10.8309 43.6812 13.1498 46.0001 15.9999 46.0001C18.8501 46.0001 21.169 43.6812 21.169 40.831C21.1691 40.2565 20.7034 39.7908 20.1289 39.7908ZM16 43.9196C14.6618 43.9196 13.5196 43.0641 13.0916 41.8713H18.9085C18.4805 43.0641 17.3383 43.9196 16 43.9196Z" fill="#DDA955"/>
<path d="M22.5926 16.0761C22.5926 16.0568 22.5925 16.0374 22.5914 16.0182C22.5906 16.0037 22.5889 15.9892 22.5875 15.9748C22.5857 15.9562 22.5838 15.9375 22.581 15.9191C22.5785 15.9032 22.5752 15.8875 22.5719 15.8717C22.5685 15.8552 22.5653 15.8385 22.5611 15.8222C22.5567 15.8048 22.5513 15.7877 22.546 15.7705C22.5415 15.7559 22.5371 15.7414 22.532 15.7271C22.5256 15.7095 22.5185 15.6924 22.5112 15.675C22.5053 15.6611 22.4995 15.6471 22.4931 15.6335C22.4855 15.6175 22.4771 15.6017 22.4685 15.586C22.4605 15.5712 22.4525 15.5564 22.4438 15.5421C22.4356 15.5284 22.4267 15.515 22.4178 15.5017C22.4071 15.4856 22.396 15.4698 22.3844 15.4543C22.3803 15.4489 22.3769 15.443 22.3726 15.4376C22.3677 15.4314 22.3623 15.4261 22.3573 15.4199C22.3445 15.4043 22.3313 15.389 22.3176 15.3742C22.3076 15.3634 22.2976 15.3527 22.2872 15.3424C22.2737 15.3289 22.2597 15.3158 22.2453 15.303C22.2337 15.2926 22.222 15.2824 22.2099 15.2726C22.1961 15.2614 22.1819 15.2506 22.1674 15.24C22.154 15.2301 22.1405 15.2204 22.1266 15.2114C22.1127 15.2021 22.0983 15.1934 22.0839 15.1849C22.0686 15.1758 22.0533 15.1671 22.0377 15.1588C22.0237 15.1516 22.0095 15.1446 21.9951 15.1379C21.9781 15.1299 21.9608 15.1223 21.9433 15.1153C21.9295 15.1096 21.9155 15.1044 21.9012 15.0993C21.8826 15.0927 21.8638 15.0867 21.8448 15.0811C21.837 15.0789 21.8297 15.0758 21.8218 15.0738C21.815 15.0719 21.8081 15.0711 21.8012 15.0694C21.783 15.0649 21.7647 15.0611 21.7463 15.0576C21.7299 15.0545 21.7136 15.0516 21.6972 15.0492C21.6813 15.047 21.6654 15.0455 21.6494 15.0439C21.6308 15.0421 21.6122 15.0406 21.5937 15.0397C21.5795 15.0392 21.5653 15.0393 21.5511 15.0393C21.5314 15.0393 21.5119 15.0394 21.4923 15.0406C21.4782 15.0414 21.4641 15.043 21.45 15.0443C21.4309 15.0462 21.412 15.0482 21.3932 15.0511C21.3778 15.0535 21.3625 15.0567 21.3472 15.0598C21.33 15.0633 21.313 15.0667 21.2961 15.0709C21.2794 15.0752 21.2628 15.0804 21.2462 15.0855C21.231 15.0902 21.2158 15.0948 21.2009 15.1002C21.184 15.1063 21.1672 15.1133 21.1505 15.1204C21.136 15.1265 21.1216 15.1325 21.1073 15.1392C21.0917 15.1466 21.0763 15.1548 21.061 15.1631C21.0458 15.1713 21.0308 15.1795 21.016 15.1885C21.0027 15.1966 20.9896 15.2051 20.9765 15.2139C20.9601 15.2247 20.9441 15.2359 20.9284 15.2477C20.923 15.2517 20.9173 15.2551 20.912 15.2592L18.7762 16.9306L16.6403 15.2592C16.2638 14.9645 15.7347 14.9645 15.3582 15.2592L13.2228 16.9305L11.0873 15.2592C11.0819 15.255 11.0761 15.2516 11.0706 15.2475C11.0551 15.2358 11.0393 15.2248 11.0232 15.2141C11.0099 15.2051 10.9966 15.1964 10.9829 15.1882C10.9685 15.1794 10.9537 15.1714 10.9389 15.1634C10.9232 15.1549 10.9075 15.1466 10.8915 15.139C10.8778 15.1324 10.8638 15.1266 10.8498 15.1208C10.8326 15.1135 10.8154 15.1063 10.7979 15.1C10.7835 15.0948 10.7689 15.0904 10.7543 15.0858C10.7371 15.0805 10.7201 15.0751 10.7028 15.0707C10.6864 15.0666 10.6698 15.0633 10.6532 15.0599C10.6375 15.0567 10.6218 15.0534 10.606 15.051C10.5876 15.0481 10.5688 15.0463 10.5502 15.0444C10.5358 15.043 10.5214 15.0413 10.5069 15.0406C10.4877 15.0394 10.4685 15.0393 10.449 15.0393C10.4344 15.0393 10.42 15.0392 10.4055 15.0397C10.3872 15.0405 10.3689 15.042 10.3505 15.0438C10.3343 15.0453 10.3181 15.0469 10.3021 15.0491C10.2858 15.0514 10.2696 15.0543 10.2532 15.0574C10.2348 15.0609 10.2164 15.0647 10.1982 15.0692C10.1913 15.0708 10.1845 15.0718 10.1776 15.0735C10.1697 15.0756 10.1624 15.0786 10.1546 15.0809C10.1357 15.0864 10.117 15.0925 10.0984 15.099C10.0841 15.1041 10.07 15.1093 10.056 15.1151C10.0386 15.122 10.0215 15.1296 10.0044 15.1376C9.99007 15.1444 9.97581 15.1513 9.96188 15.1586C9.94627 15.1669 9.93088 15.1756 9.91569 15.1846C9.90123 15.1932 9.88698 15.2019 9.87304 15.2112C9.85921 15.2203 9.84558 15.23 9.83216 15.2399C9.81781 15.2504 9.80366 15.2611 9.78993 15.2723C9.77776 15.2822 9.7659 15.2926 9.75415 15.3031C9.74 15.3158 9.72627 15.3286 9.71285 15.342C9.70234 15.3525 9.69204 15.3634 9.68185 15.3744C9.66843 15.389 9.65543 15.4039 9.64295 15.4193C9.63785 15.4256 9.63223 15.4311 9.62724 15.4374C9.62287 15.4429 9.61944 15.4489 9.61517 15.4545C9.60384 15.4697 9.59302 15.4852 9.58251 15.5009C9.57336 15.5145 9.56441 15.5282 9.55599 15.5422C9.54746 15.5562 9.53965 15.5707 9.53185 15.5851C9.52322 15.6011 9.51459 15.6173 9.50689 15.6336C9.50054 15.6469 9.49493 15.6605 9.4891 15.6742C9.48171 15.6917 9.47433 15.7092 9.46788 15.727C9.46278 15.7411 9.45852 15.7554 9.45404 15.7697C9.44864 15.787 9.44323 15.8044 9.43875 15.8221C9.43459 15.8382 9.43137 15.8546 9.42804 15.871C9.42481 15.8869 9.42138 15.9028 9.41899 15.9188C9.41618 15.9371 9.41431 15.9556 9.41244 15.9742C9.41098 15.9887 9.40932 16.0032 9.40848 16.0177C9.40734 16.0369 9.40724 16.0562 9.40724 16.0756C9.40724 16.0901 9.40713 16.1046 9.40765 16.1191C9.40838 16.1374 9.41004 16.1558 9.41171 16.1742C9.41316 16.1903 9.41473 16.2063 9.41701 16.2225C9.4193 16.2388 9.42222 16.2551 9.42534 16.2715C9.42877 16.2899 9.43262 16.3082 9.43709 16.3264C9.43875 16.3332 9.43969 16.3401 9.44146 16.347L13.4449 31.3203C13.5692 31.7854 13.9897 32.092 14.4491 32.092C14.538 32.092 14.6286 32.0806 14.7184 32.0565C15.2734 31.908 15.603 31.3379 15.4547 30.7828L12.2547 18.8143L12.582 19.0704C12.7702 19.2178 12.9966 19.2914 13.223 19.2914C13.4495 19.2914 13.6758 19.2178 13.8642 19.0704L15.9996 17.399L18.1354 19.0705C18.512 19.3651 19.0409 19.3651 19.4176 19.0705L19.7452 18.8141L16.5451 30.7829C16.3966 31.3379 16.7263 31.9081 17.2813 32.0566C17.3713 32.0806 17.4617 32.0921 17.5506 32.0921C18.0101 32.0921 18.4305 31.7854 18.5549 31.3204L22.5583 16.3471C22.5602 16.3403 22.561 16.3335 22.5627 16.3266C22.5672 16.3082 22.571 16.2898 22.5745 16.2712C22.5777 16.255 22.5806 16.2388 22.5829 16.2226C22.5851 16.2064 22.5867 16.1903 22.5882 16.1741C22.5899 16.1557 22.5915 16.1374 22.5922 16.1191C22.5928 16.105 22.5927 16.0906 22.5926 16.0761Z" fill="#DDA955"/>
</svg>
