<svg width="20" height="20" viewBox="0 0 20 20" fill="none" xmlns="http://www.w3.org/2000/svg">
<g clip-path="url(#clip0)">
<path d="M8.54317 11.4588C6.67662 9.59229 6.25517 7.72575 6.16009 6.97792C6.13352 6.77114 6.20468 6.56377 6.35261 6.41687L7.86311 4.90705C8.0853 4.68499 8.12473 4.33892 7.95819 4.07257L5.55319 0.338132C5.36894 0.0431972 4.99061 -0.0632479 4.6796 0.0923394L0.818722 1.91067C0.567217 2.03451 0.419285 2.30173 0.447841 2.58062C0.65014 4.50245 1.48799 9.22681 6.13075 13.8699C10.7735 18.513 15.4972 19.3505 17.42 19.5528C17.6989 19.5814 17.9661 19.4334 18.09 19.1819L19.9083 15.3211C20.0633 15.0107 19.9576 14.6334 19.6639 14.4488L15.9294 12.0445C15.6632 11.8778 15.3172 11.9169 15.095 12.1389L13.5851 13.6494C13.4382 13.7973 13.2309 13.8685 13.0241 13.8419C12.2763 13.7468 10.4097 13.3254 8.54317 11.4588Z" fill="#DDA955"/>
<path d="M15.9552 10.4522C15.5828 10.4522 15.2809 10.1503 15.2809 9.77783C15.2777 6.98598 13.0153 4.72352 10.2234 4.72036C9.85098 4.72036 9.54907 4.41846 9.54907 4.04603C9.54907 3.67361 9.85098 3.3717 10.2234 3.3717C13.7598 3.37561 16.6256 6.24144 16.6295 9.77783C16.6295 10.1503 16.3276 10.4522 15.9552 10.4522Z" fill="#DDA955"/>
<path d="M19.3268 10.4521C18.9544 10.4521 18.6525 10.1502 18.6525 9.77778C18.6473 5.12466 14.8765 1.35386 10.2234 1.34866C9.85098 1.34866 9.54907 1.04675 9.54907 0.67433C9.54907 0.301908 9.85098 0 10.2234 0C15.6211 0.00594619 19.9952 4.38013 20.0012 9.77778C20.0012 9.95662 19.9301 10.1281 19.8037 10.2546C19.6772 10.3811 19.5057 10.4521 19.3268 10.4521Z" fill="#DDA955"/>
</g>
<defs>
<clipPath id="clip0">
<rect width="19.5556" height="19.5556" fill="white" transform="translate(0.444336)"/>
</clipPath>
</defs>
</svg>
