<svg width="37" height="43" viewBox="0 0 37 43" fill="none" xmlns="http://www.w3.org/2000/svg">
<path d="M35.605 6.96274L19.1441 0.128341C18.7317 -0.0428196 18.2682 -0.0429036 17.8559 0.128341L1.39499 6.96274C0.768043 7.22309 0.359375 7.83517 0.359375 8.51401V16.8222C0.359375 28.2619 7.27373 38.5523 17.8652 42.8754C18.2721 43.0414 18.7278 43.0414 19.1348 42.8754C29.7261 38.5524 36.6406 28.262 36.6406 16.8222V8.51401C36.6406 7.83517 36.232 7.22309 35.605 6.96274ZM33.2812 16.8222C33.2812 26.5471 27.5703 35.4996 18.5 39.4958C9.67207 35.6064 3.71875 26.8107 3.71875 16.8222V9.63537L18.5 3.4983L33.2812 9.63537V16.8222ZM16.6434 22.4839L23.8631 15.2643C24.519 14.6084 25.5825 14.6083 26.2385 15.2643C26.8945 15.9203 26.8944 16.9838 26.2384 17.6398L17.8311 26.047C17.1751 26.7031 16.1116 26.7028 15.4557 26.047L10.7615 21.3528C10.1055 20.6968 10.1055 19.6333 10.7615 18.9774C11.4175 18.3215 12.481 18.3214 13.1369 18.9774L16.6434 22.4839Z" fill="#DDA955"/>
</svg>
