<svg width="34" height="46" viewBox="0 0 34 46" fill="none" xmlns="http://www.w3.org/2000/svg">
<path d="M33.1913 3.67849H24.2123V3.00724C24.2117 2.39759 23.9692 1.81311 23.538 1.38217C23.1068 0.951226 22.5221 0.709061 21.9125 0.708862H12.0875C11.4781 0.709458 10.8938 0.951799 10.4629 1.3827C10.032 1.8136 9.78969 2.39785 9.78909 3.00724V3.67849H0.808594C0.7224 3.67844 0.637042 3.69538 0.5574 3.72834C0.477757 3.7613 0.405393 3.80964 0.344445 3.87059C0.283497 3.93154 0.235159 4.0039 0.202197 4.08354C0.169235 4.16319 0.152295 4.24854 0.152344 4.33474V44.6349C0.152295 44.7211 0.169235 44.8064 0.202197 44.8861C0.235159 44.9657 0.283497 45.0381 0.344445 45.099C0.405393 45.16 0.477757 45.2083 0.5574 45.2413C0.637042 45.2742 0.7224 45.2912 0.808594 45.2911H33.1913C33.2775 45.2912 33.3629 45.2742 33.4425 45.2413C33.5222 45.2083 33.5945 45.16 33.6555 45.099C33.7164 45.0381 33.7648 44.9657 33.7977 44.8861C33.8307 44.8064 33.8476 44.7211 33.8476 44.6349V4.33474C33.8476 4.24854 33.8307 4.16319 33.7977 4.08354C33.7648 4.0039 33.7164 3.93154 33.6555 3.87059C33.5945 3.80964 33.5222 3.7613 33.4425 3.72834C33.3629 3.69538 33.2775 3.67844 33.1913 3.67849ZM28.6396 8.68961V40.1041H5.35997V8.68961H28.6396ZM11.1001 3.00724C11.1004 2.7456 11.2046 2.49478 11.3897 2.30992C11.5749 2.12505 11.8258 2.02126 12.0875 2.02136H21.9125C22.1738 2.02166 22.4244 2.12562 22.6093 2.31045C22.7941 2.49527 22.898 2.74586 22.8983 3.00724V7.37711H11.1001V3.00724ZM32.5351 43.9786H1.46484V4.99099H9.78759V7.37711H4.70372C4.52967 7.37711 4.36275 7.44625 4.23968 7.56932C4.11661 7.69239 4.04747 7.85931 4.04747 8.03336V40.7604C4.04747 40.9344 4.11661 41.1013 4.23968 41.2244C4.36275 41.3475 4.52967 41.4166 4.70372 41.4166H29.2958C29.382 41.4167 29.4674 41.3997 29.547 41.3668C29.6267 41.3338 29.699 41.2855 29.76 41.2245C29.8209 41.1636 29.8693 41.0912 29.9022 41.0116C29.9352 40.9319 29.9521 40.8466 29.9521 40.7604V8.03336C29.9521 7.94717 29.9352 7.86181 29.9022 7.78217C29.8693 7.70253 29.8209 7.63016 29.76 7.56921C29.699 7.50827 29.6267 7.45993 29.547 7.42697C29.4674 7.394 29.382 7.37706 29.2958 7.37711H24.2123V4.99099H32.5351V43.9786Z" fill="black"/>
<path d="M8.61987 28.0021H14.5175C14.6037 28.0022 14.6891 27.9852 14.7687 27.9523C14.8483 27.9193 14.9207 27.871 14.9816 27.81C15.0426 27.7491 15.0909 27.6767 15.1239 27.5971C15.1569 27.5174 15.1738 27.4321 15.1737 27.3459V22.4405L16.4949 21.1194C16.6144 20.9956 16.6805 20.8298 16.679 20.6577C16.6774 20.4857 16.6084 20.3211 16.4867 20.1994C16.365 20.0778 16.2004 20.0088 16.0283 20.0073C15.8563 20.0059 15.6905 20.0721 15.5667 20.1916L14.8651 20.8933C14.7612 20.8272 14.6407 20.7919 14.5175 20.7916H8.61987C8.44586 20.7917 8.27899 20.8609 8.15594 20.984C8.03289 21.107 7.96372 21.2739 7.96362 21.4479V27.3459C7.96362 27.5199 8.03276 27.6869 8.15583 27.8099C8.2789 27.933 8.44582 28.0021 8.61987 28.0021ZM9.275 22.1041H13.6539L11.573 24.185L11.0499 23.6619C10.9261 23.5423 10.7604 23.4761 10.5883 23.4776C10.4162 23.4791 10.2516 23.548 10.1299 23.6697C10.0082 23.7913 9.93918 23.9559 9.93765 24.128C9.93612 24.3001 10.0022 24.4658 10.1217 24.5896L11.1091 25.577C11.17 25.638 11.2424 25.6864 11.322 25.7194C11.4016 25.7524 11.487 25.7694 11.5732 25.7694C11.6594 25.7694 11.7447 25.7524 11.8244 25.7194C11.904 25.6864 11.9763 25.638 12.0372 25.577L13.8612 23.753V26.6896H9.275V22.1041Z" fill="black"/>
<path d="M8.61987 37.6583H14.5175C14.6037 37.6584 14.6891 37.6414 14.7687 37.6085C14.8483 37.5755 14.9207 37.5272 14.9816 37.4662C15.0426 37.4053 15.0909 37.3329 15.1239 37.2533C15.1569 37.1736 15.1738 37.0883 15.1737 37.0021V32.0967L16.4949 30.7756C16.5575 30.715 16.6075 30.6426 16.6419 30.5625C16.6763 30.4825 16.6944 30.3964 16.6951 30.3092C16.6958 30.2221 16.6792 30.1357 16.6462 30.055C16.6132 29.9744 16.5644 29.9011 16.5028 29.8395C16.4412 29.7779 16.3679 29.7292 16.2873 29.6962C16.2066 29.6632 16.1202 29.6467 16.033 29.6474C15.9459 29.6482 15.8598 29.6663 15.7797 29.7007C15.6997 29.7351 15.6273 29.7851 15.5668 29.8478L14.8651 30.5495C14.7612 30.4834 14.6407 30.4482 14.5175 30.4478H8.61987C8.44586 30.4479 8.27899 30.5171 8.15594 30.6402C8.03289 30.7632 7.96372 30.9301 7.96362 31.1041V37.0021C7.96362 37.1761 8.03276 37.3431 8.15583 37.4661C8.2789 37.5892 8.44582 37.6583 8.61987 37.6583ZM9.275 31.7603H13.6539L11.573 33.8412L11.0499 33.3181C10.9261 33.1985 10.7604 33.1323 10.5883 33.1338C10.4162 33.1353 10.2516 33.2042 10.1299 33.3259C10.0082 33.4475 9.93918 33.6121 9.93765 33.7842C9.93612 33.9563 10.0022 34.122 10.1217 34.2458L11.1091 35.2332C11.17 35.2942 11.2424 35.3426 11.322 35.3756C11.4016 35.4086 11.487 35.4256 11.5732 35.4256C11.6594 35.4256 11.7447 35.4086 11.8244 35.3756C11.904 35.3426 11.9763 35.2942 12.0372 35.2332L13.8612 33.4092V36.3458H9.275V31.7603Z" fill="black"/>
<path d="M8.61987 18.3459H14.5175C14.6037 18.3459 14.6891 18.329 14.7687 18.296C14.8483 18.2631 14.9207 18.2147 14.9816 18.1538C15.0426 18.0928 15.0909 18.0205 15.1239 17.9408C15.1569 17.8612 15.1738 17.7758 15.1737 17.6896V12.7843L16.4949 11.4631C16.6144 11.3393 16.6805 11.1736 16.679 11.0015C16.6774 10.8294 16.6084 10.6648 16.4867 10.5432C16.365 10.4215 16.2004 10.3526 16.0283 10.3511C15.8563 10.3496 15.6905 10.4158 15.5667 10.5354L14.8651 11.237C14.7612 11.1709 14.6407 11.1357 14.5175 11.1354H8.61987C8.44586 11.1355 8.27899 11.2047 8.15594 11.3277C8.03289 11.4508 7.96372 11.6176 7.96362 11.7916V17.6896C7.96362 17.8637 8.03276 18.0306 8.15583 18.1537C8.2789 18.2767 8.44582 18.3459 8.61987 18.3459ZM9.275 12.4479H13.6539L11.573 14.5288L11.0499 14.0056C10.9893 13.9429 10.9169 13.8929 10.8369 13.8585C10.7568 13.8241 10.6707 13.806 10.5836 13.8052C10.4964 13.8044 10.41 13.821 10.3294 13.854C10.2487 13.887 10.1754 13.9357 10.1138 13.9973C10.0522 14.0589 10.0034 14.1322 9.97042 14.2128C9.9374 14.2935 9.92078 14.3799 9.92152 14.467C9.92226 14.5542 9.94035 14.6403 9.97473 14.7203C10.0091 14.8004 10.0591 14.8728 10.1217 14.9334L11.1091 15.9208C11.17 15.9817 11.2424 16.0301 11.322 16.0631C11.4016 16.0962 11.487 16.1131 11.5732 16.1131C11.6594 16.1131 11.7447 16.0962 11.8244 16.0631C11.904 16.0301 11.9763 15.9817 12.0372 15.9208L13.8612 14.0968V17.0334H9.275V12.4479Z" fill="black"/>
<path d="M17.6196 15.3968H25.3802C25.5543 15.3968 25.7212 15.3277 25.8443 15.2046C25.9674 15.0816 26.0365 14.9146 26.0365 14.7406C26.0365 14.5666 25.9674 14.3996 25.8443 14.2766C25.7212 14.1535 25.5543 14.0844 25.3802 14.0844H17.6196C17.4456 14.0844 17.2787 14.1535 17.1556 14.2766C17.0325 14.3996 16.9634 14.5666 16.9634 14.7406C16.9634 14.9146 17.0325 15.0816 17.1556 15.2046C17.2787 15.3277 17.4456 15.3968 17.6196 15.3968Z" fill="black"/>
<path d="M17.6196 25.0531H25.3802C25.5543 25.0531 25.7212 24.984 25.8443 24.8609C25.9674 24.7378 26.0365 24.5709 26.0365 24.3969C26.0365 24.2228 25.9674 24.0559 25.8443 23.9328C25.7212 23.8097 25.5543 23.7406 25.3802 23.7406H17.6196C17.4456 23.7406 17.2787 23.8097 17.1556 23.9328C17.0325 24.0559 16.9634 24.2228 16.9634 24.3969C16.9634 24.5709 17.0325 24.7378 17.1556 24.8609C17.2787 24.984 17.4456 25.0531 17.6196 25.0531Z" fill="black"/>
<path d="M17.6196 34.7094H25.3802C25.5543 34.7094 25.7212 34.6402 25.8443 34.5171C25.9674 34.3941 26.0365 34.2271 26.0365 34.0531C26.0365 33.8791 25.9674 33.7121 25.8443 33.5891C25.7212 33.466 25.5543 33.3969 25.3802 33.3969H17.6196C17.4456 33.3969 17.2787 33.466 17.1556 33.5891C17.0325 33.7121 16.9634 33.8791 16.9634 34.0531C16.9634 34.2271 17.0325 34.3941 17.1556 34.5171C17.2787 34.6402 17.4456 34.7094 17.6196 34.7094Z" fill="black"/>
</svg>
