<svg width="20" height="20" viewBox="0 0 20 20" fill="none" xmlns="http://www.w3.org/2000/svg">
  <g clip-path="url(#clip0)">
    <path
      d="M0.567577 9.42873L5.07357 11.1105L6.81766 16.7195C6.92926 17.0787 7.36854 17.2115 7.66012 16.9731L10.1718 14.9255C10.4351 14.711 10.8101 14.7003 11.0853 14.9L15.6155 18.1891C15.9274 18.4158 16.3693 18.2449 16.4475 17.868L19.7662 1.90473C19.8516 1.49302 19.447 1.14956 19.055 1.30118L0.562297 8.43511C0.105935 8.61111 0.109912 9.25723 0.567577 9.42873ZM6.53658 10.2153L15.343 4.79139C15.5012 4.6942 15.6641 4.9082 15.5282 5.03427L8.26034 11.7901C8.00488 12.0279 7.84009 12.3461 7.79342 12.6915L7.54585 14.5262C7.51306 14.7712 7.16895 14.7955 7.10135 14.5584L6.14919 11.2128C6.04013 10.8312 6.19906 10.4236 6.53658 10.2153Z"
      fill="#DDA955" />
  </g>
  <defs>
    <clipPath id="clip0">
      <rect width="19.5556" height="19.5556" fill="white" transform="translate(0.222168)" />
    </clipPath>
  </defs>
</svg>