<svg width="20" height="20" viewBox="0 0 20 20" fill="none" xmlns="http://www.w3.org/2000/svg">
<path fill-rule="evenodd" clip-rule="evenodd" d="M16.2628 3.26585C14.5476 1.54867 12.2666 0.60257 9.8365 0.601562C4.82907 0.601562 0.753754 4.67677 0.751739 9.68554C0.751068 11.2867 1.16934 12.8497 1.96438 14.2274L0.675537 18.9349L5.49151 17.6716C6.8185 18.3954 8.31245 18.7769 9.8328 18.7773H9.83661C14.8435 18.7773 18.9192 14.7018 18.9211 9.69281C18.9221 7.2653 17.9781 4.98292 16.2628 3.26585ZM9.8365 17.2431H9.83336C8.4785 17.2425 7.14972 16.8784 5.99023 16.1906L5.71463 16.0269L2.85676 16.7766L3.61957 13.9902L3.43997 13.7046C2.6841 12.5023 2.28496 11.1128 2.28563 9.68609C2.2872 5.52294 5.67457 2.1359 9.83952 2.1359C11.8564 2.13658 13.7522 2.92299 15.1778 4.35025C16.6034 5.77751 17.388 7.67462 17.3874 9.69225C17.3856 13.8557 13.9984 17.2431 9.8365 17.2431ZM13.9783 11.5879C13.7514 11.4742 12.6353 10.9253 12.4272 10.8494C12.2192 10.7736 12.0677 10.7359 11.9166 10.9631C11.7652 11.1902 11.3302 11.7016 11.1977 11.853C11.0652 12.0045 10.933 12.0235 10.7059 11.9098C10.4789 11.7963 9.74754 11.5565 8.88044 10.7831C8.2057 10.1812 7.75016 9.43791 7.61767 9.21075C7.48541 8.98338 7.61656 8.87237 7.71726 8.7475C7.96299 8.44235 8.20905 8.12244 8.2847 7.97104C8.36045 7.81953 8.32252 7.68693 8.26568 7.57335C8.20905 7.45978 7.75509 6.34248 7.56598 5.88784C7.38157 5.44539 7.19459 5.50515 7.05516 5.49821C6.9229 5.49161 6.7715 5.49026 6.62011 5.49026C6.46882 5.49026 6.22287 5.547 6.01474 5.77437C5.80672 6.00164 5.22038 6.55072 5.22038 7.66802C5.22038 8.78532 6.03376 9.86468 6.14723 10.0162C6.26069 10.1677 7.74792 12.4605 10.0249 13.4436C10.5665 13.6777 10.9893 13.8172 11.319 13.9219C11.8629 14.0946 12.3576 14.0702 12.7487 14.0118C13.1849 13.9466 14.0916 13.4626 14.281 12.9325C14.4701 12.4022 14.4701 11.9478 14.4132 11.853C14.3566 11.7583 14.2052 11.7016 13.9783 11.5879Z" fill="#DDA955"/>
</svg>
