<svg width="326" height="62" viewBox="0 0 326 62" fill="none" xmlns="http://www.w3.org/2000/svg">
<rect x="1" y="1.00049" width="324" height="60" stroke="#DDA955" stroke-width="2"/>
<path d="M2 0H302L267.777 61H2V0Z" fill="#DDA955"/>
<path d="M53.9561 31.2734C53.9561 32.1536 53.8363 32.9557 53.5967 33.6797C53.3624 34.4036 53.0134 35.0234 52.5499 35.5391C52.0915 36.0547 51.5264 36.4531 50.8546 36.7344C50.1879 37.0156 49.4197 37.1562 48.5499 37.1562C47.6384 37.1562 46.8415 37.0156 46.1592 36.7344C45.4822 36.4531 44.9197 36.0547 44.4717 35.5391C44.0238 35.0234 43.6879 34.4036 43.4639 33.6797C43.24 32.9505 43.128 32.1432 43.128 31.2578C43.128 30.3724 43.24 29.5703 43.4639 28.8516C43.6879 28.1276 44.0238 27.5104 44.4717 27C44.9249 26.4896 45.49 26.0964 46.1671 25.8203C46.8494 25.5391 47.6488 25.3984 48.5655 25.3984C49.4301 25.3984 50.1957 25.5391 50.8624 25.8203C51.5342 26.0964 52.0994 26.4922 52.5577 27.0078C53.016 27.5182 53.3624 28.1354 53.5967 28.8594C53.8363 29.5781 53.9561 30.3828 53.9561 31.2734ZM45.8155 31.2734C45.8155 32.0391 45.865 32.7214 45.9639 33.3203C46.0629 33.9193 46.2217 34.4271 46.4405 34.8438C46.6592 35.2552 46.9405 35.5703 47.2842 35.7891C47.6332 36.0078 48.0551 36.1172 48.5499 36.1172C49.0499 36.1172 49.4717 36.0078 49.8155 35.7891C50.1645 35.5703 50.4457 35.2552 50.6592 34.8438C50.8728 34.4271 51.0264 33.9193 51.1202 33.3203C51.2191 32.7214 51.2686 32.0391 51.2686 31.2734C51.2686 30.5078 51.2191 29.8255 51.1202 29.2266C51.0264 28.6276 50.8728 28.1224 50.6592 27.7109C50.4457 27.2943 50.1671 26.9792 49.8233 26.7656C49.4796 26.5469 49.0603 26.4375 48.5655 26.4375C48.0655 26.4375 47.641 26.5469 47.2921 26.7656C46.9431 26.9792 46.6592 27.2943 46.4405 27.7109C46.2217 28.1224 46.0629 28.6276 45.9639 29.2266C45.865 29.8255 45.8155 30.5078 45.8155 31.2734ZM55.2724 36.1484H55.4599C55.5797 36.1484 55.7047 36.138 55.8349 36.1172C55.9703 36.0911 56.0927 36.0417 56.2021 35.9688C56.3166 35.8958 56.4104 35.7917 56.4833 35.6562C56.5614 35.5208 56.6005 35.3385 56.6005 35.1094V30.3125C56.6005 30.0833 56.5614 29.901 56.4833 29.7656C56.4104 29.6302 56.3166 29.526 56.2021 29.4531C56.0927 29.3802 55.9703 29.3333 55.8349 29.3125C55.7047 29.2865 55.5797 29.2734 55.4599 29.2734H55.2724V28.4219H60.1161V29.2734H60.0849C59.9755 29.2734 59.8583 29.2865 59.7333 29.3125C59.6135 29.3333 59.5015 29.3802 59.3974 29.4531C59.2932 29.526 59.2047 29.6302 59.1317 29.7656C59.064 29.901 59.0302 30.0833 59.0302 30.3125V32.0703C59.2906 32.0703 59.5015 32.0417 59.663 31.9844C59.8245 31.9271 59.9651 31.8385 60.0849 31.7188C60.2151 31.5885 60.3635 31.3984 60.5302 31.1484C60.6969 30.8932 60.913 30.5599 61.1786 30.1484C61.3557 29.8672 61.525 29.6146 61.6864 29.3906C61.8479 29.1667 62.0198 28.9766 62.2021 28.8203C62.3896 28.6641 62.5979 28.5443 62.8271 28.4609C63.0614 28.3724 63.3375 28.3281 63.6552 28.3281C63.9208 28.3281 64.1396 28.3568 64.3114 28.4141C64.4885 28.4661 64.6291 28.5391 64.7333 28.6328C64.8427 28.7214 64.9182 28.8255 64.9599 28.9453C65.0067 29.0599 65.0302 29.1797 65.0302 29.3047C65.0302 29.4505 65.0041 29.5833 64.9521 29.7031C64.9052 29.8229 64.8375 29.9271 64.7489 30.0156C64.6656 30.099 64.5666 30.1667 64.4521 30.2188C64.3375 30.2708 64.2151 30.3021 64.0849 30.3125C64.0432 30.0677 63.9573 29.8698 63.8271 29.7188C63.7021 29.5677 63.5224 29.4922 63.288 29.4922C63.1942 29.4922 63.1005 29.5156 63.0067 29.5625C62.913 29.6094 62.814 29.6823 62.7099 29.7812C62.6109 29.8802 62.5015 30.0078 62.3817 30.1641C62.2672 30.3151 62.137 30.4974 61.9911 30.7109C61.8557 30.9141 61.7333 31.0938 61.6239 31.25C61.5146 31.401 61.413 31.5339 61.3192 31.6484C61.2255 31.763 61.1344 31.8646 61.0458 31.9531C60.9625 32.0365 60.8765 32.1146 60.788 32.1875C60.9599 32.2083 61.1317 32.2474 61.3036 32.3047C61.4807 32.362 61.6526 32.4453 61.8192 32.5547C61.9911 32.6641 62.1552 32.8021 62.3114 32.9688C62.4677 33.1354 62.6161 33.3385 62.7567 33.5781L63.6396 35.0781C63.7646 35.2969 63.8844 35.4766 63.9989 35.6172C64.1135 35.7578 64.2307 35.8672 64.3505 35.9453C64.4755 36.0234 64.6083 36.0781 64.7489 36.1094C64.8896 36.1354 65.0484 36.1484 65.2255 36.1484H65.2724V37H64.6005C64.163 37 63.7672 36.9844 63.413 36.9531C63.064 36.9167 62.7489 36.8464 62.4677 36.7422C62.1864 36.6328 61.9338 36.4792 61.7099 36.2812C61.4911 36.0781 61.2906 35.8099 61.1083 35.4766L60.2958 33.9609C60.1812 33.7422 60.0771 33.5677 59.9833 33.4375C59.8896 33.3073 59.7958 33.2057 59.7021 33.1328C59.6083 33.0599 59.5094 33.013 59.4052 32.9922C59.301 32.9661 59.176 32.9531 59.0302 32.9531V35.1094C59.0302 35.3385 59.064 35.5208 59.1317 35.6562C59.2047 35.7917 59.2932 35.8958 59.3974 35.9688C59.5015 36.0417 59.6135 36.0911 59.7333 36.1172C59.8583 36.138 59.9755 36.1484 60.0849 36.1484H60.1161V37H55.2724V36.1484ZM69.0261 36.3281C69.0261 36.6667 68.974 36.9948 68.8699 37.3125C68.7657 37.6302 68.599 37.9245 68.3699 38.1953C68.1407 38.4661 67.8438 38.7083 67.4792 38.9219C67.1199 39.1406 66.6798 39.3203 66.1589 39.4609V38.6328C66.3933 38.5495 66.5964 38.4661 66.7683 38.3828C66.9454 38.2995 67.0912 38.2083 67.2058 38.1094C67.3256 38.0156 67.4141 37.9089 67.4714 37.7891C67.5339 37.6745 67.5652 37.5391 67.5652 37.3828C67.5652 37.2839 67.5365 37.2005 67.4792 37.1328C67.422 37.0703 67.349 37.0104 67.2605 36.9531C67.1772 36.8958 67.0834 36.8385 66.9792 36.7812C66.8803 36.7188 66.7865 36.6406 66.698 36.5469C66.6147 36.4531 66.5444 36.3385 66.4871 36.2031C66.4298 36.0625 66.4011 35.8854 66.4011 35.6719C66.4011 35.3125 66.5105 35.0391 66.7292 34.8516C66.948 34.6641 67.2214 34.5703 67.5496 34.5703C68.0027 34.5703 68.3621 34.7266 68.6277 35.0391C68.8933 35.3516 69.0261 35.7812 69.0261 36.3281ZM83.8852 28.4219V29.2734C83.7237 29.2734 83.5805 29.2917 83.4555 29.3281C83.3357 29.3646 83.2263 29.4297 83.1274 29.5234C83.0284 29.612 82.9373 29.7318 82.8539 29.8828C82.7706 30.0286 82.6873 30.2135 82.6039 30.4375C82.4164 30.9688 82.2211 31.5104 82.018 32.0625C81.8149 32.6146 81.6091 33.1693 81.4008 33.7266C81.1977 34.2786 80.992 34.8307 80.7836 35.3828C80.5805 35.9297 80.3826 36.4688 80.1899 37C80.0024 37.5156 79.8253 37.9688 79.6586 38.3594C79.492 38.75 79.3149 39.0885 79.1274 39.375C78.9451 39.6615 78.742 39.8984 78.518 40.0859C78.294 40.2734 78.0336 40.4219 77.7367 40.5312C77.4399 40.6458 77.0935 40.7266 76.6977 40.7734C76.3071 40.8203 75.8487 40.8438 75.3227 40.8438H75.0492V39.9141C75.6065 39.9141 76.0805 39.8464 76.4711 39.7109C76.8617 39.5755 77.1925 39.3828 77.4633 39.1328C77.7341 38.8828 77.9555 38.5833 78.1274 38.2344C78.3045 37.8854 78.4581 37.5 78.5883 37.0781L75.7055 30.0391C75.643 29.888 75.5727 29.7682 75.4946 29.6797C75.4164 29.5911 75.3331 29.5234 75.2446 29.4766C75.156 29.4297 75.0597 29.401 74.9555 29.3906C74.8513 29.375 74.7394 29.3672 74.6196 29.3672V28.4219H79.1821V29.2734C78.8696 29.2734 78.6222 29.3151 78.4399 29.3984C78.2628 29.4766 78.1742 29.6328 78.1742 29.8672C78.1742 29.9557 78.1925 30.0625 78.2289 30.1875C78.2654 30.3073 78.2992 30.4062 78.3305 30.4844C78.4242 30.7083 78.5206 30.9531 78.6196 31.2188C78.7237 31.4792 78.8227 31.7422 78.9164 32.0078C79.0154 32.2682 79.1091 32.5208 79.1977 32.7656C79.2862 33.0104 79.3644 33.2266 79.4321 33.4141C79.5102 33.6172 79.5753 33.8021 79.6274 33.9688C79.6795 34.1302 79.7211 34.2786 79.7524 34.4141C79.7888 34.5443 79.8175 34.6667 79.8383 34.7812C79.8591 34.8906 79.8748 35 79.8852 35.1094C79.8956 35 79.9164 34.8802 79.9477 34.75C79.9789 34.6146 80.0128 34.487 80.0492 34.3672C80.0857 34.2422 80.1222 34.1328 80.1586 34.0391C80.1951 33.9401 80.2211 33.8698 80.2367 33.8281L81.2914 30.6953C81.3123 30.6432 81.3305 30.5833 81.3461 30.5156C81.367 30.4427 81.3852 30.3698 81.4008 30.2969C81.4164 30.224 81.4269 30.1536 81.4321 30.0859C81.4425 30.0182 81.4477 29.9609 81.4477 29.9141C81.4477 29.6693 81.3461 29.5026 81.143 29.4141C80.9399 29.3203 80.6534 29.2734 80.2836 29.2734V28.4219H83.8852ZM88.6349 37V36.1484H88.8224C88.9422 36.1484 89.0672 36.138 89.1974 36.1172C89.3328 36.0911 89.4552 36.0417 89.5646 35.9688C89.6791 35.8958 89.7729 35.7917 89.8458 35.6562C89.9239 35.5208 89.963 35.3385 89.963 35.1094V30.3125C89.963 30.0833 89.9239 29.901 89.8458 29.7656C89.7729 29.6302 89.6791 29.526 89.5646 29.4531C89.4552 29.3802 89.3328 29.3333 89.1974 29.3125C89.0672 29.2865 88.9422 29.2734 88.8224 29.2734H88.6349V28.4219H92.8224L95.1896 33.7812L97.6114 28.4219H101.9V29.2734H101.69C101.512 29.2734 101.343 29.2865 101.182 29.3125C101.025 29.3333 100.887 29.3802 100.768 29.4531C100.648 29.526 100.552 29.6354 100.479 29.7812C100.411 29.9219 100.377 30.1094 100.377 30.3438V35.0781C100.377 35.3125 100.411 35.5026 100.479 35.6484C100.552 35.7891 100.648 35.8958 100.768 35.9688C100.887 36.0417 101.025 36.0911 101.182 36.1172C101.343 36.138 101.512 36.1484 101.69 36.1484H101.9V37H96.713V36.1484H96.7599C96.937 36.1484 97.1036 36.138 97.2599 36.1172C97.4213 36.0911 97.562 36.0417 97.6817 35.9688C97.8015 35.8958 97.8953 35.7891 97.963 35.6484C98.0359 35.5026 98.0724 35.3125 98.0724 35.0781V30.1484H97.963L94.8536 37H94.1192L91.0958 30.1484H90.9864V35.0781C90.9864 35.3125 91.0203 35.5026 91.088 35.6484C91.1609 35.7891 91.2573 35.8958 91.3771 35.9688C91.4969 36.0417 91.6349 36.0911 91.7911 36.1172C91.9526 36.138 92.1219 36.1484 92.2989 36.1484H92.3458V37H88.6349ZM107.084 29.2578C106.636 29.2578 106.279 29.4792 106.014 29.9219C105.753 30.3646 105.61 31.013 105.584 31.8672H108.35C108.35 31.4609 108.326 31.0964 108.279 30.7734C108.232 30.4505 108.157 30.1771 108.053 29.9531C107.954 29.7292 107.824 29.5573 107.662 29.4375C107.506 29.3177 107.313 29.2578 107.084 29.2578ZM107.232 37.1562C106.555 37.1562 105.956 37.0573 105.435 36.8594C104.92 36.6615 104.488 36.375 104.139 36C103.79 35.625 103.527 35.1667 103.35 34.625C103.172 34.0781 103.084 33.4557 103.084 32.7578C103.084 32.0078 103.172 31.349 103.35 30.7812C103.527 30.2135 103.784 29.7396 104.123 29.3594C104.462 28.9792 104.876 28.6953 105.365 28.5078C105.86 28.3151 106.422 28.2188 107.053 28.2188C107.631 28.2188 108.152 28.3021 108.615 28.4688C109.079 28.6302 109.472 28.8724 109.795 29.1953C110.118 29.5182 110.365 29.9193 110.537 30.3984C110.709 30.8776 110.795 31.4349 110.795 32.0703V32.8906H105.553C105.568 33.4271 105.626 33.888 105.725 34.2734C105.829 34.6589 105.969 34.9766 106.146 35.2266C106.329 35.4766 106.547 35.6615 106.803 35.7812C107.063 35.901 107.36 35.9609 107.693 35.9609C107.969 35.9609 108.225 35.9297 108.459 35.8672C108.693 35.7995 108.904 35.7083 109.092 35.5938C109.284 35.474 109.451 35.3359 109.592 35.1797C109.738 35.0182 109.857 34.8464 109.951 34.6641C110.238 34.8203 110.381 35.0807 110.381 35.4453C110.381 35.6745 110.318 35.8932 110.193 36.1016C110.068 36.3047 109.876 36.4844 109.615 36.6406C109.355 36.7969 109.027 36.9219 108.631 37.0156C108.24 37.1094 107.774 37.1562 107.232 37.1562ZM121.088 35.1094C121.088 35.3385 121.124 35.5208 121.197 35.6562C121.275 35.7917 121.369 35.8958 121.478 35.9688C121.593 36.0417 121.718 36.0911 121.853 36.1172C121.989 36.138 122.114 36.1484 122.228 36.1484H122.416V37H117.572V36.1484H117.603C117.713 36.1484 117.827 36.138 117.947 36.1172C118.072 36.0911 118.187 36.0417 118.291 35.9688C118.395 35.8958 118.481 35.7917 118.549 35.6562C118.622 35.5208 118.658 35.3385 118.658 35.1094V33.0469H115.666V35.1094C115.666 35.3385 115.7 35.5208 115.767 35.6562C115.84 35.7917 115.929 35.8958 116.033 35.9688C116.137 36.0417 116.249 36.0911 116.369 36.1172C116.494 36.138 116.611 36.1484 116.72 36.1484H116.752V37H111.908V36.1484H112.095C112.215 36.1484 112.34 36.138 112.47 36.1172C112.606 36.0911 112.728 36.0417 112.838 35.9688C112.952 35.8958 113.046 35.7917 113.119 35.6562C113.197 35.5208 113.236 35.3385 113.236 35.1094V30.3125C113.236 30.0833 113.197 29.901 113.119 29.7656C113.046 29.6302 112.952 29.526 112.838 29.4531C112.728 29.3802 112.606 29.3333 112.47 29.3125C112.34 29.2865 112.215 29.2734 112.095 29.2734H111.908V28.4219H116.752V29.2734H116.72C116.611 29.2734 116.494 29.2865 116.369 29.3125C116.249 29.3333 116.137 29.3802 116.033 29.4531C115.929 29.526 115.84 29.6302 115.767 29.7656C115.7 29.901 115.666 30.0833 115.666 30.3125V32.1328H118.658V30.3125C118.658 30.0833 118.622 29.901 118.549 29.7656C118.481 29.6302 118.395 29.526 118.291 29.4531C118.187 29.3802 118.072 29.3333 117.947 29.3125C117.827 29.2865 117.713 29.2734 117.603 29.2734H117.572V28.4219H122.416V29.2734H122.228C122.114 29.2734 121.989 29.2865 121.853 29.3125C121.718 29.3333 121.593 29.3802 121.478 29.4531C121.369 29.526 121.275 29.6302 121.197 29.7656C121.124 29.901 121.088 30.0833 121.088 30.3125V35.1094ZM127.576 29.3359C127.341 29.3359 127.144 29.3724 126.982 29.4453C126.821 29.513 126.69 29.6094 126.591 29.7344C126.492 29.8594 126.42 30.0104 126.373 30.1875C126.331 30.3594 126.31 30.5495 126.31 30.7578C126.31 30.987 126.331 31.1953 126.373 31.3828C126.42 31.5703 126.492 31.7318 126.591 31.8672C126.696 31.9974 126.826 32.099 126.982 32.1719C127.144 32.2448 127.341 32.2812 127.576 32.2812H128.631V29.3359H127.576ZM126.537 35.5312C126.375 35.8281 126.185 36.0729 125.966 36.2656C125.748 36.4531 125.487 36.6016 125.185 36.7109C124.888 36.8203 124.547 36.8958 124.162 36.9375C123.782 36.9792 123.347 37 122.857 37V36.1484H122.904C123.05 36.1484 123.18 36.1302 123.295 36.0938C123.409 36.0573 123.516 36 123.615 35.9219C123.719 35.8438 123.818 35.7448 123.912 35.625C124.011 35.5052 124.112 35.362 124.216 35.1953L125.623 32.9375C125.409 32.8854 125.193 32.8021 124.974 32.6875C124.761 32.5729 124.565 32.4245 124.388 32.2422C124.216 32.0599 124.076 31.8411 123.966 31.5859C123.857 31.3255 123.802 31.0286 123.802 30.6953C123.802 30.3411 123.865 30.0234 123.99 29.7422C124.12 29.4609 124.326 29.224 124.607 29.0312C124.888 28.8333 125.25 28.6823 125.693 28.5781C126.136 28.474 126.672 28.4219 127.302 28.4219H132.396V29.2734H132.341C131.878 29.2734 131.55 29.3542 131.357 29.5156C131.164 29.6771 131.068 29.9219 131.068 30.25V35.0781C131.068 35.224 131.084 35.362 131.115 35.4922C131.151 35.6172 131.211 35.7292 131.295 35.8281C131.378 35.9271 131.492 36.0052 131.638 36.0625C131.784 36.1198 131.966 36.1484 132.185 36.1484H132.396V37H127.256V36.1484H127.318C127.495 36.1484 127.662 36.138 127.818 36.1172C127.979 36.0911 128.12 36.0417 128.24 35.9688C128.36 35.8958 128.453 35.7891 128.521 35.6484C128.594 35.5026 128.631 35.3125 128.631 35.0781V33.2266H127.787L126.537 35.5312ZM141.896 29.2578C141.448 29.2578 141.091 29.4792 140.826 29.9219C140.565 30.3646 140.422 31.013 140.396 31.8672H143.161C143.161 31.4609 143.138 31.0964 143.091 30.7734C143.044 30.4505 142.969 30.1771 142.865 29.9531C142.766 29.7292 142.635 29.5573 142.474 29.4375C142.318 29.3177 142.125 29.2578 141.896 29.2578ZM142.044 37.1562C141.367 37.1562 140.768 37.0573 140.247 36.8594C139.732 36.6615 139.299 36.375 138.951 36C138.602 35.625 138.339 35.1667 138.161 34.625C137.984 34.0781 137.896 33.4557 137.896 32.7578C137.896 32.0078 137.984 31.349 138.161 30.7812C138.339 30.2135 138.596 29.7396 138.935 29.3594C139.273 28.9792 139.687 28.6953 140.177 28.5078C140.672 28.3151 141.234 28.2188 141.865 28.2188C142.443 28.2188 142.964 28.3021 143.427 28.4688C143.891 28.6302 144.284 28.8724 144.607 29.1953C144.93 29.5182 145.177 29.9193 145.349 30.3984C145.521 30.8776 145.607 31.4349 145.607 32.0703V32.8906H140.365C140.38 33.4271 140.437 33.888 140.536 34.2734C140.641 34.6589 140.781 34.9766 140.958 35.2266C141.141 35.4766 141.359 35.6615 141.615 35.7812C141.875 35.901 142.172 35.9609 142.505 35.9609C142.781 35.9609 143.036 35.9297 143.271 35.8672C143.505 35.7995 143.716 35.7083 143.904 35.5938C144.096 35.474 144.263 35.3359 144.404 35.1797C144.549 35.0182 144.669 34.8464 144.763 34.6641C145.049 34.8203 145.193 35.0807 145.193 35.4453C145.193 35.6745 145.13 35.8932 145.005 36.1016C144.88 36.3047 144.687 36.4844 144.427 36.6406C144.167 36.7969 143.839 36.9219 143.443 37.0156C143.052 37.1094 142.586 37.1562 142.044 37.1562ZM151.165 37.1562C150.577 37.1562 150.038 37.0807 149.548 36.9297C149.064 36.7786 148.647 36.5286 148.298 36.1797C147.949 35.8307 147.678 35.375 147.485 34.8125C147.293 34.25 147.196 33.5599 147.196 32.7422C147.196 31.8776 147.295 31.1562 147.493 30.5781C147.696 30 147.972 29.5365 148.321 29.1875C148.676 28.8385 149.092 28.5911 149.571 28.4453C150.051 28.2943 150.566 28.2188 151.118 28.2188C151.634 28.2188 152.09 28.263 152.485 28.3516C152.881 28.4349 153.212 28.5521 153.478 28.7031C153.743 28.8542 153.944 29.0339 154.079 29.2422C154.22 29.4453 154.29 29.6641 154.29 29.8984C154.29 30.0703 154.259 30.2396 154.196 30.4062C154.139 30.5677 154.032 30.7109 153.876 30.8359C153.725 30.9609 153.514 31.0625 153.243 31.1406C152.978 31.2188 152.637 31.2578 152.22 31.2578C152.22 30.9818 152.202 30.7188 152.165 30.4688C152.134 30.2188 152.079 30 152.001 29.8125C151.923 29.625 151.816 29.4766 151.681 29.3672C151.551 29.2526 151.384 29.1953 151.181 29.1953C150.946 29.1953 150.735 29.2526 150.548 29.3672C150.366 29.4766 150.207 29.6667 150.071 29.9375C149.941 30.2083 149.84 30.5703 149.767 31.0234C149.699 31.4766 149.665 32.0443 149.665 32.7266C149.665 33.8099 149.814 34.6198 150.11 35.1562C150.407 35.6927 150.892 35.9609 151.564 35.9609C151.84 35.9609 152.097 35.9297 152.337 35.8672C152.582 35.7995 152.803 35.7083 153.001 35.5938C153.199 35.474 153.371 35.3359 153.517 35.1797C153.668 35.0182 153.79 34.8464 153.884 34.6641C154.014 34.7422 154.11 34.849 154.173 34.9844C154.235 35.1146 154.267 35.2526 154.267 35.3984C154.267 35.6016 154.207 35.8073 154.087 36.0156C153.967 36.224 153.78 36.4141 153.525 36.5859C153.275 36.7526 152.954 36.8906 152.564 37C152.173 37.1042 151.707 37.1562 151.165 37.1562ZM163.7 28.4219L163.794 31.1562H162.692L162.63 30.6328C162.599 30.3828 162.56 30.1745 162.513 30.0078C162.471 29.8411 162.414 29.7083 162.341 29.6094C162.273 29.5104 162.19 29.4401 162.091 29.3984C161.992 29.3568 161.867 29.3359 161.716 29.3359H160.802V35.0781C160.802 35.2917 160.83 35.4688 160.888 35.6094C160.945 35.7448 161.023 35.8542 161.122 35.9375C161.221 36.0156 161.336 36.0703 161.466 36.1016C161.596 36.1328 161.731 36.1484 161.872 36.1484H162.052V37H157.044V36.1484H157.224C157.38 36.1484 157.526 36.1328 157.661 36.1016C157.802 36.0703 157.924 36.0156 158.028 35.9375C158.132 35.8542 158.216 35.7448 158.278 35.6094C158.341 35.4688 158.372 35.2917 158.372 35.0781V29.3359H157.442C157.297 29.3359 157.172 29.3568 157.067 29.3984C156.968 29.4401 156.882 29.5104 156.81 29.6094C156.742 29.7083 156.685 29.8411 156.638 30.0078C156.596 30.1745 156.56 30.3828 156.528 30.6328L156.466 31.1562H155.364L155.458 28.4219H163.7ZM169.837 28.4219V29.3359H169.626C169.449 29.3359 169.279 29.3516 169.118 29.3828C168.962 29.4141 168.824 29.4688 168.704 29.5469C168.584 29.6198 168.488 29.7188 168.415 29.8438C168.347 29.9688 168.313 30.125 168.313 30.3125V32.1172H169.852C170.347 32.1172 170.816 32.1484 171.259 32.2109C171.701 32.2682 172.092 32.3828 172.43 32.5547C172.769 32.7214 173.037 32.9609 173.235 33.2734C173.433 33.5807 173.532 33.9844 173.532 34.4844C173.532 34.8438 173.457 35.1771 173.305 35.4844C173.16 35.7917 172.938 36.0573 172.641 36.2812C172.345 36.5052 171.97 36.6823 171.516 36.8125C171.069 36.9375 170.54 37 169.93 37H164.555V36.1484H164.727C165.123 36.1484 165.415 36.0625 165.602 35.8906C165.79 35.7188 165.884 35.4635 165.884 35.125V30.3125C165.884 29.9427 165.785 29.6771 165.587 29.5156C165.394 29.3542 165.108 29.2734 164.727 29.2734H164.555V28.4219H169.837ZM169.516 36.0703C169.782 36.0703 170.006 36.0417 170.188 35.9844C170.376 35.9219 170.527 35.8281 170.641 35.7031C170.761 35.5729 170.847 35.4036 170.899 35.1953C170.957 34.987 170.985 34.7344 170.985 34.4375C170.985 33.9323 170.85 33.5755 170.579 33.3672C170.313 33.1536 169.938 33.0469 169.454 33.0469H168.313V36.0703H169.516ZM178.688 36.1484H178.875C178.995 36.1484 179.12 36.138 179.25 36.1172C179.386 36.0911 179.508 36.0417 179.618 35.9688C179.732 35.8958 179.826 35.7917 179.899 35.6562C179.977 35.5208 180.016 35.3385 180.016 35.1094V30.25C180.016 30.0365 179.977 29.8672 179.899 29.7422C179.826 29.612 179.732 29.513 179.618 29.4453C179.503 29.3724 179.378 29.3255 179.243 29.3047C179.112 29.2839 178.99 29.2734 178.875 29.2734H178.688V28.4219H183.727C184.92 28.4219 185.8 28.5964 186.368 28.9453C186.941 29.2943 187.227 29.8021 187.227 30.4688C187.227 30.7865 187.18 31.0651 187.086 31.3047C186.993 31.5443 186.862 31.7474 186.696 31.9141C186.534 32.0807 186.339 32.2135 186.11 32.3125C185.881 32.4062 185.631 32.4714 185.36 32.5078V32.5859C185.667 32.612 185.959 32.6693 186.235 32.7578C186.516 32.8464 186.761 32.974 186.969 33.1406C187.183 33.3021 187.352 33.5052 187.477 33.75C187.602 33.9896 187.665 34.2786 187.665 34.6172C187.665 34.9661 187.597 35.2891 187.461 35.5859C187.326 35.8776 187.115 36.1276 186.829 36.3359C186.547 36.5443 186.188 36.7083 185.75 36.8281C185.318 36.9427 184.803 37 184.204 37H178.688V36.1484ZM183.586 36.0859C183.857 36.0859 184.089 36.0625 184.282 36.0156C184.474 35.9688 184.633 35.888 184.758 35.7734C184.883 35.6536 184.974 35.4922 185.032 35.2891C185.089 35.0807 185.118 34.8203 185.118 34.5078C185.118 34.2266 185.081 33.9922 185.008 33.8047C184.941 33.6172 184.836 33.4688 184.696 33.3594C184.56 33.2448 184.391 33.1641 184.188 33.1172C183.99 33.0703 183.761 33.0469 183.5 33.0469H182.446V36.0859H183.586ZM184.829 30.6484C184.829 30.4401 184.805 30.2552 184.758 30.0938C184.717 29.9271 184.644 29.7891 184.54 29.6797C184.435 29.5651 184.3 29.4792 184.133 29.4219C183.967 29.3646 183.761 29.3359 183.516 29.3359H182.446V32.1172H183.516C183.995 32.1172 184.334 31.987 184.532 31.7266C184.73 31.4661 184.829 31.1068 184.829 30.6484ZM197.567 32.6797C197.567 34.1849 197.213 35.3073 196.504 36.0469C195.801 36.7865 194.765 37.1562 193.395 37.1562C192.754 37.1562 192.179 37.0651 191.668 36.8828C191.158 36.6953 190.723 36.4167 190.364 36.0469C190.009 35.6771 189.736 35.2109 189.543 34.6484C189.356 34.0859 189.262 33.4297 189.262 32.6797C189.262 31.1745 189.614 30.0547 190.317 29.3203C191.025 28.5859 192.067 28.2188 193.442 28.2188C194.082 28.2188 194.655 28.3099 195.16 28.4922C195.671 28.6745 196.103 28.9505 196.457 29.3203C196.817 29.6901 197.09 30.1562 197.278 30.7188C197.47 31.276 197.567 31.9297 197.567 32.6797ZM191.746 32.6797C191.746 33.2474 191.775 33.7474 191.832 34.1797C191.895 34.612 191.991 34.974 192.121 35.2656C192.257 35.5573 192.431 35.7786 192.645 35.9297C192.858 36.0755 193.119 36.1484 193.426 36.1484C193.733 36.1484 193.991 36.0755 194.2 35.9297C194.413 35.7786 194.585 35.5573 194.715 35.2656C194.851 34.974 194.947 34.612 195.004 34.1797C195.062 33.7474 195.09 33.2474 195.09 32.6797C195.09 32.1068 195.059 31.6068 194.996 31.1797C194.939 30.7474 194.843 30.388 194.707 30.1016C194.577 29.8151 194.405 29.6016 194.192 29.4609C193.978 29.3151 193.718 29.2422 193.41 29.2422C193.103 29.2422 192.843 29.3151 192.629 29.4609C192.416 29.6016 192.244 29.8151 192.114 30.1016C191.983 30.388 191.89 30.7474 191.832 31.1797C191.775 31.6068 191.746 32.1068 191.746 32.6797ZM208.945 36.1484V37H204.102V36.1484H204.133C204.242 36.1484 204.357 36.138 204.477 36.1172C204.602 36.0911 204.716 36.0417 204.82 35.9688C204.925 35.8958 205.011 35.7917 205.078 35.6562C205.151 35.5208 205.188 35.3385 205.188 35.1094V29.3359H202.516V35.1094C202.516 35.3385 202.55 35.5208 202.617 35.6562C202.69 35.7917 202.779 35.8958 202.883 35.9688C202.987 36.0417 203.099 36.0911 203.219 36.1172C203.344 36.138 203.461 36.1484 203.57 36.1484H203.602V37H198.758V36.1484H198.945C199.065 36.1484 199.19 36.138 199.32 36.1172C199.456 36.0911 199.578 36.0417 199.688 35.9688C199.802 35.8958 199.896 35.7917 199.969 35.6562C200.047 35.5208 200.086 35.3385 200.086 35.1094V30.25C200.086 30.0365 200.047 29.8672 199.969 29.7422C199.896 29.612 199.802 29.513 199.688 29.4453C199.573 29.3724 199.448 29.3255 199.313 29.3047C199.182 29.2839 199.06 29.2734 198.945 29.2734H198.758V28.4219H208.945V29.2734H208.758C208.643 29.2734 208.518 29.2839 208.383 29.3047C208.253 29.3255 208.13 29.3724 208.016 29.4453C207.901 29.513 207.805 29.612 207.727 29.7422C207.654 29.8672 207.617 30.0365 207.617 30.25V35.1094C207.617 35.3385 207.654 35.5208 207.727 35.6562C207.805 35.7917 207.899 35.8958 208.008 35.9688C208.123 36.0417 208.248 36.0911 208.383 36.1172C208.518 36.138 208.643 36.1484 208.758 36.1484H208.945ZM209.777 39.9922C209.897 39.9922 210.022 39.9792 210.152 39.9531C210.288 39.9323 210.41 39.8854 210.52 39.8125C210.634 39.7396 210.728 39.6354 210.801 39.5C210.879 39.3646 210.918 39.1823 210.918 38.9531V30.3906C210.918 30.1458 210.889 29.9505 210.832 29.8047C210.78 29.6589 210.704 29.5469 210.605 29.4688C210.512 29.3906 210.397 29.3385 210.262 29.3125C210.132 29.2865 209.991 29.2734 209.84 29.2734H209.73V28.4219H212.863L213.152 29.6719H213.223C213.337 29.4635 213.47 29.2734 213.621 29.1016C213.777 28.9297 213.954 28.7812 214.152 28.6562C214.355 28.5312 214.582 28.4349 214.832 28.3672C215.082 28.2995 215.361 28.2656 215.668 28.2656C216.199 28.2656 216.668 28.3542 217.074 28.5312C217.486 28.7031 217.829 28.974 218.105 29.3438C218.382 29.7083 218.59 30.1719 218.73 30.7344C218.876 31.2969 218.949 31.9661 218.949 32.7422C218.949 33.513 218.879 34.1797 218.738 34.7422C218.598 35.2995 218.389 35.7604 218.113 36.125C217.842 36.4896 217.507 36.7604 217.105 36.9375C216.71 37.1094 216.251 37.1953 215.73 37.1953C215.121 37.1953 214.626 37.0807 214.246 36.8516C213.866 36.6172 213.561 36.3047 213.332 35.9141H213.223C213.244 36.1589 213.264 36.3984 213.285 36.6328C213.301 36.8307 213.314 37.0417 213.324 37.2656C213.34 37.4896 213.348 37.6849 213.348 37.8516V38.9531C213.348 39.1823 213.384 39.3646 213.457 39.5C213.535 39.6354 213.629 39.7396 213.738 39.8125C213.853 39.8854 213.975 39.9323 214.105 39.9531C214.241 39.9792 214.366 39.9922 214.48 39.9922H214.832V40.8438H209.59V39.9922H209.777ZM214.98 36.0078C215.517 36.0078 215.9 35.7396 216.129 35.2031C216.363 34.6615 216.48 33.8464 216.48 32.7578C216.48 31.6953 216.363 30.8802 216.129 30.3125C215.9 29.7448 215.522 29.4609 214.996 29.4609C214.678 29.4609 214.413 29.5339 214.199 29.6797C213.986 29.8203 213.816 30.0312 213.691 30.3125C213.566 30.5885 213.478 30.9323 213.426 31.3438C213.374 31.75 213.348 32.2161 213.348 32.7422C213.348 33.2943 213.374 33.776 213.426 34.1875C213.478 34.5938 213.566 34.9323 213.691 35.2031C213.816 35.474 213.983 35.6771 214.191 35.8125C214.4 35.9427 214.663 36.0078 214.98 36.0078ZM228.922 32.6797C228.922 34.1849 228.568 35.3073 227.859 36.0469C227.156 36.7865 226.12 37.1562 224.75 37.1562C224.109 37.1562 223.534 37.0651 223.023 36.8828C222.513 36.6953 222.078 36.4167 221.719 36.0469C221.364 35.6771 221.091 35.2109 220.898 34.6484C220.711 34.0859 220.617 33.4297 220.617 32.6797C220.617 31.1745 220.969 30.0547 221.672 29.3203C222.38 28.5859 223.422 28.2188 224.797 28.2188C225.437 28.2188 226.01 28.3099 226.516 28.4922C227.026 28.6745 227.458 28.9505 227.812 29.3203C228.172 29.6901 228.445 30.1562 228.633 30.7188C228.825 31.276 228.922 31.9297 228.922 32.6797ZM223.101 32.6797C223.101 33.2474 223.13 33.7474 223.187 34.1797C223.25 34.612 223.346 34.974 223.476 35.2656C223.612 35.5573 223.786 35.7786 224 35.9297C224.213 36.0755 224.474 36.1484 224.781 36.1484C225.088 36.1484 225.346 36.0755 225.555 35.9297C225.768 35.7786 225.94 35.5573 226.07 35.2656C226.206 34.974 226.302 34.612 226.359 34.1797C226.417 33.7474 226.445 33.2474 226.445 32.6797C226.445 32.1068 226.414 31.6068 226.351 31.1797C226.294 30.7474 226.198 30.388 226.062 30.1016C225.932 29.8151 225.76 29.6016 225.547 29.4609C225.333 29.3151 225.073 29.2422 224.766 29.2422C224.458 29.2422 224.198 29.3151 223.984 29.4609C223.771 29.6016 223.599 29.8151 223.469 30.1016C223.338 30.388 223.245 30.7474 223.187 31.1797C223.13 31.6068 223.101 32.1068 223.101 32.6797ZM234.558 37.1562C233.97 37.1562 233.431 37.0807 232.941 36.9297C232.457 36.7786 232.04 36.5286 231.691 36.1797C231.342 35.8307 231.071 35.375 230.879 34.8125C230.686 34.25 230.59 33.5599 230.59 32.7422C230.59 31.8776 230.689 31.1562 230.886 30.5781C231.09 30 231.366 29.5365 231.715 29.1875C232.069 28.8385 232.485 28.5911 232.965 28.4453C233.444 28.2943 233.959 28.2188 234.511 28.2188C235.027 28.2188 235.483 28.263 235.879 28.3516C236.274 28.4349 236.605 28.5521 236.871 28.7031C237.136 28.8542 237.337 29.0339 237.472 29.2422C237.613 29.4453 237.683 29.6641 237.683 29.8984C237.683 30.0703 237.652 30.2396 237.59 30.4062C237.532 30.5677 237.426 30.7109 237.269 30.8359C237.118 30.9609 236.907 31.0625 236.636 31.1406C236.371 31.2188 236.03 31.2578 235.613 31.2578C235.613 30.9818 235.595 30.7188 235.558 30.4688C235.527 30.2188 235.472 30 235.394 29.8125C235.316 29.625 235.209 29.4766 235.074 29.3672C234.944 29.2526 234.777 29.1953 234.574 29.1953C234.34 29.1953 234.129 29.2526 233.941 29.3672C233.759 29.4766 233.6 29.6667 233.465 29.9375C233.334 30.2083 233.233 30.5703 233.16 31.0234C233.092 31.4766 233.058 32.0443 233.058 32.7266C233.058 33.8099 233.207 34.6198 233.504 35.1562C233.801 35.6927 234.285 35.9609 234.957 35.9609C235.233 35.9609 235.491 35.9297 235.73 35.8672C235.975 35.7995 236.196 35.7083 236.394 35.5938C236.592 35.474 236.764 35.3359 236.91 35.1797C237.061 35.0182 237.183 34.8464 237.277 34.6641C237.407 34.7422 237.504 34.849 237.566 34.9844C237.629 35.1146 237.66 35.2526 237.66 35.3984C237.66 35.6016 237.6 35.8073 237.48 36.0156C237.36 36.224 237.173 36.4141 236.918 36.5859C236.668 36.7526 236.347 36.8906 235.957 37C235.566 37.1042 235.1 37.1562 234.558 37.1562Z" fill="black"/>
</svg>
