<svg width="326" height="62" fill="none" xmlns="http://www.w3.org/2000/svg"><path stroke="#DDA955" stroke-width="2" d="M1 1h324v60H1z"/><path d="M2 0h300l-34.223 61H2V0z" fill="#DDA955"/><path d="M53.956 31.273c0 .88-.12 1.683-.36 2.407a5.082 5.082 0 01-1.046 1.86 4.62 4.62 0 01-1.695 1.194c-.667.282-1.435.422-2.305.422-.912 0-1.708-.14-2.39-.422a4.465 4.465 0 01-1.688-1.195 5.088 5.088 0 01-1.008-1.86c-.224-.729-.336-1.536-.336-2.421 0-.886.112-1.688.336-2.406.224-.724.56-1.342 1.008-1.852a4.5 4.5 0 011.695-1.18c.682-.28 1.482-.422 2.398-.422.865 0 1.63.141 2.297.422a4.54 4.54 0 011.696 1.188c.458.51.804 1.127 1.039 1.851.24.72.36 1.524.36 2.414zm-8.14 0c0 .766.049 1.448.148 2.047.099.6.258 1.107.477 1.524.218.411.5.726.843.945.35.219.771.328 1.266.328.5 0 .922-.11 1.266-.328a2.38 2.38 0 00.843-.945c.214-.417.367-.925.461-1.524a12.66 12.66 0 00.149-2.047c0-.765-.05-1.447-.149-2.046-.094-.6-.247-1.105-.46-1.516-.214-.417-.493-.732-.837-.945-.343-.22-.763-.328-1.258-.328-.5 0-.924.109-1.273.328-.349.213-.633.528-.852.945-.218.411-.377.917-.476 1.516a12.66 12.66 0 00-.148 2.046zm9.456 4.875h.188c.12 0 .245-.01.375-.03a.994.994 0 00.367-.15.823.823 0 00.281-.312c.078-.135.117-.317.117-.547v-4.797c0-.229-.039-.411-.117-.546a.823.823 0 00-.28-.313.9.9 0 00-.368-.14 1.915 1.915 0 00-.375-.04h-.188v-.851h4.844v.851h-.031c-.11 0-.227.014-.352.04a.827.827 0 00-.601.453c-.068.135-.102.317-.102.547v1.757c.26 0 .471-.028.633-.086a1.12 1.12 0 00.422-.265c.13-.13.279-.32.445-.57l.649-1c.177-.282.346-.534.507-.758a3.25 3.25 0 01.516-.57 2.08 2.08 0 01.625-.36c.234-.089.51-.133.828-.133.266 0 .485.029.656.086.177.052.318.125.422.219a.69.69 0 01.227.312c.047.115.07.235.07.36a.99.99 0 01-.078.398.9.9 0 01-.203.313 1 1 0 01-.297.203 1.092 1.092 0 01-.367.093 1.196 1.196 0 00-.258-.593c-.125-.151-.305-.227-.539-.227a.624.624 0 00-.281.07c-.094.047-.193.12-.297.22a3.92 3.92 0 00-.328.382c-.115.151-.245.333-.39.547-.136.203-.259.383-.368.539a8.52 8.52 0 01-.305.398 3.594 3.594 0 01-.531.54c.172.02.344.06.516.117.177.057.349.14.515.25.172.11.336.247.492.414.157.166.305.37.446.61l.883 1.5c.125.218.244.398.359.538.114.14.232.25.351.328.126.078.258.133.399.164.14.026.3.04.477.04h.046V37H64.6a13.7 13.7 0 01-1.187-.047 3.873 3.873 0 01-.945-.21 2.505 2.505 0 01-.758-.462 3.147 3.147 0 01-.602-.804l-.812-1.516a4.457 4.457 0 00-.313-.523 1.473 1.473 0 00-.28-.305.707.707 0 00-.298-.14 1.562 1.562 0 00-.375-.04v2.156c0 .23.034.412.102.547a.883.883 0 00.601.461c.125.021.242.031.352.031h.031V37h-4.844v-.852zm13.754.18c0 .339-.052.667-.156.984a2.616 2.616 0 01-.5.883c-.23.271-.526.513-.89.727-.36.219-.8.398-1.321.539v-.828a6.5 6.5 0 00.61-.25c.176-.084.322-.175.437-.274a.903.903 0 00.36-.726.374.374 0 00-.087-.25 1.12 1.12 0 00-.219-.18 3.32 3.32 0 00-.28-.172 1.46 1.46 0 01-.282-.234 1.241 1.241 0 01-.21-.344 1.417 1.417 0 01-.087-.531c0-.36.11-.633.328-.82.219-.188.492-.282.82-.282.454 0 .813.157 1.079.47.265.312.398.741.398 1.288zm14.86-7.906v.851a1.54 1.54 0 00-.43.055.823.823 0 00-.329.195c-.099.089-.19.209-.273.36-.083.146-.167.33-.25.555a130.51 130.51 0 01-.586 1.625 403.46 403.46 0 01-.617 1.664c-.203.552-.409 1.104-.617 1.656A205.71 205.71 0 0080.19 37a27.07 27.07 0 01-.531 1.36c-.167.39-.344.729-.532 1.015a3.055 3.055 0 01-.609.71 2.61 2.61 0 01-.781.446 4.29 4.29 0 01-1.04.242c-.39.047-.848.07-1.374.07h-.274v-.929c.557 0 1.031-.068 1.422-.203.39-.136.721-.328.992-.578.271-.25.493-.55.664-.899.178-.349.331-.734.461-1.156l-2.882-7.039a1.282 1.282 0 00-.211-.36.894.894 0 00-.25-.202.776.776 0 00-.29-.086 2.271 2.271 0 00-.335-.024v-.945h4.562v.851c-.312 0-.56.042-.742.125-.177.079-.266.235-.266.47 0 .088.018.195.055.32.036.12.07.218.102.296.093.224.19.47.289.735.104.26.203.523.296.789.1.26.193.513.282.758l.234.648c.078.203.143.388.195.555.053.161.094.31.125.445a4.077 4.077 0 01.133.695c.01-.109.031-.229.063-.359a5.79 5.79 0 01.21-.71l.079-.212 1.054-3.133c.021-.052.04-.112.055-.18a2.78 2.78 0 00.055-.218c.015-.073.026-.143.031-.211.01-.068.016-.125.016-.172 0-.245-.102-.411-.305-.5-.203-.094-.49-.14-.86-.14v-.852h3.602zM88.634 37v-.852h.187c.12 0 .245-.01.375-.03a.994.994 0 00.368-.15.823.823 0 00.28-.312c.079-.135.118-.317.118-.547v-4.797c0-.229-.04-.411-.117-.546a.823.823 0 00-.281-.313.9.9 0 00-.368-.14 1.915 1.915 0 00-.375-.04h-.187v-.851h4.187l2.368 5.36 2.421-5.36h4.289v.851h-.21a3.18 3.18 0 00-.508.04c-.157.02-.295.067-.414.14a.778.778 0 00-.289.328c-.068.14-.102.328-.102.563v4.734c0 .234.034.425.102.57a.778.778 0 00.289.32c.119.074.257.123.414.15.161.02.33.03.508.03h.21V37h-5.187v-.852h.047c.177 0 .344-.01.5-.03.161-.027.302-.076.422-.15a.738.738 0 00.281-.32c.073-.145.11-.336.11-.57v-4.93h-.11L94.853 37h-.734l-3.023-6.852h-.11v4.93c0 .234.034.425.102.57a.78.78 0 00.29.32c.119.074.257.123.413.15.162.02.33.03.508.03h.047V37h-3.711zm18.449-7.742c-.448 0-.805.221-1.07.664-.261.443-.404 1.091-.43 1.945h2.766c0-.406-.024-.77-.071-1.094a2.972 2.972 0 00-.226-.82 1.252 1.252 0 00-.391-.515.922.922 0 00-.578-.18zm.148 7.898c-.677 0-1.276-.099-1.797-.297a3.412 3.412 0 01-1.296-.859 3.65 3.65 0 01-.789-1.375c-.178-.547-.266-1.17-.266-1.867 0-.75.088-1.409.266-1.977.177-.567.434-1.041.773-1.422.339-.38.753-.664 1.242-.851.495-.193 1.057-.29 1.688-.29a4.59 4.59 0 011.562.25c.464.162.857.404 1.18.727a3.2 3.2 0 01.742 1.203c.172.48.258 1.037.258 1.672v.82h-5.242c.015.537.073.998.172 1.383.104.386.244.704.421.954.183.25.401.434.657.554.26.12.557.18.89.18.276 0 .532-.031.766-.094a2.6 2.6 0 00.633-.273 2.33 2.33 0 00.5-.414c.146-.162.265-.334.359-.516.287.156.43.417.43.781 0 .23-.063.448-.188.657a1.656 1.656 0 01-.578.539c-.26.156-.588.28-.984.375-.391.093-.857.14-1.399.14zm13.856-2.047c0 .23.036.412.109.547.078.136.172.24.281.313.115.073.24.122.375.148.136.021.261.031.375.031h.188V37h-4.844v-.852h.031c.11 0 .224-.01.344-.03a.822.822 0 00.602-.461c.073-.136.109-.319.109-.548v-2.062h-2.992v2.062c0 .23.034.412.101.547.073.136.162.24.266.313a.922.922 0 00.336.148c.125.021.242.031.351.031h.032V37h-4.844v-.852h.187c.12 0 .245-.01.375-.03a.998.998 0 00.368-.15.828.828 0 00.281-.312c.078-.135.117-.317.117-.547v-4.797c0-.229-.039-.411-.117-.546a.827.827 0 00-.281-.313.903.903 0 00-.368-.14 1.912 1.912 0 00-.375-.04h-.187v-.851h4.844v.851h-.032a1.73 1.73 0 00-.351.04.825.825 0 00-.602.453c-.067.135-.101.317-.101.547v1.82h2.992v-1.82c0-.23-.036-.412-.109-.547a.821.821 0 00-.258-.313.83.83 0 00-.344-.14 1.62 1.62 0 00-.344-.04h-.031v-.851h4.844v.851h-.188a2.01 2.01 0 00-.375.04.969.969 0 00-.375.14.918.918 0 00-.281.313c-.073.135-.109.317-.109.547v4.796zm6.488-5.773a1.44 1.44 0 00-.594.11.965.965 0 00-.391.288 1.225 1.225 0 00-.218.453 2.404 2.404 0 00-.063.57c0 .23.021.438.063.626.047.187.119.349.218.484.105.13.235.232.391.305.162.073.359.11.594.11h1.055v-2.946h-1.055zm-1.039 6.195a2.664 2.664 0 01-.571.735 2.478 2.478 0 01-.781.445c-.297.11-.638.185-1.023.227-.38.041-.815.062-1.305.062v-.852h.047c.146 0 .276-.018.391-.054.114-.037.221-.094.32-.172.104-.078.203-.177.297-.297.099-.12.2-.263.304-.43l1.407-2.258a2.86 2.86 0 01-.649-.25 2.4 2.4 0 01-.586-.445 2.232 2.232 0 01-.422-.656 2.289 2.289 0 01-.164-.89c0-.355.063-.673.188-.954.13-.281.336-.518.617-.71.281-.199.643-.35 1.086-.454.443-.104.979-.156 1.609-.156h5.094v.851h-.055c-.463 0-.791.081-.984.243-.193.161-.289.406-.289.734v4.828c0 .146.016.284.047.414a.833.833 0 00.523.57c.146.058.328.086.547.086h.211V37h-5.14v-.852h.062c.177 0 .344-.01.5-.03.161-.027.302-.076.422-.15a.738.738 0 00.281-.32c.073-.145.11-.336.11-.57v-1.851h-.844l-1.25 2.304zm15.359-6.273c-.448 0-.805.221-1.07.664-.261.443-.404 1.091-.43 1.945h2.765c0-.406-.023-.77-.07-1.094a2.972 2.972 0 00-.226-.82 1.26 1.26 0 00-.391-.515.922.922 0 00-.578-.18zm.148 7.898c-.677 0-1.276-.099-1.797-.297A3.404 3.404 0 01138.95 36a3.664 3.664 0 01-.79-1.375c-.177-.547-.265-1.17-.265-1.867 0-.75.088-1.409.265-1.977.178-.567.435-1.041.774-1.422.338-.38.752-.664 1.242-.851.495-.193 1.057-.29 1.688-.29a4.59 4.59 0 011.562.25c.464.162.857.404 1.18.727a3.2 3.2 0 01.742 1.203c.172.48.258 1.037.258 1.672v.82h-5.242c.015.537.072.998.171 1.383.105.386.245.704.422.954.183.25.401.434.657.554.26.12.557.18.89.18.276 0 .531-.031.766-.094a2.6 2.6 0 00.633-.273 2.33 2.33 0 00.5-.414c.145-.162.265-.334.359-.516.286.156.43.417.43.781 0 .23-.063.448-.188.657a1.665 1.665 0 01-.578.539c-.26.156-.588.28-.984.375-.391.093-.857.14-1.399.14zm9.121 0a5.471 5.471 0 01-1.617-.226 3.008 3.008 0 01-1.25-.75c-.349-.35-.62-.805-.813-1.367-.192-.563-.289-1.253-.289-2.07 0-.865.099-1.587.297-2.165.203-.578.479-1.041.828-1.39a3.004 3.004 0 011.25-.743c.48-.15.995-.226 1.547-.226.516 0 .972.044 1.367.133.396.083.727.2.993.351.265.151.466.33.601.54.141.202.211.421.211.655 0 .172-.031.342-.094.508a.963.963 0 01-.32.43c-.151.125-.362.227-.633.305-.265.078-.606.117-1.023.117a5.39 5.39 0 00-.055-.79 2.515 2.515 0 00-.164-.655 1.107 1.107 0 00-.32-.446.729.729 0 00-.5-.172c-.235 0-.446.058-.633.172-.182.11-.341.3-.477.57-.13.271-.231.633-.304 1.086a11.809 11.809 0 00-.102 1.704c0 1.083.149 1.893.445 2.43.297.536.782.804 1.454.804.276 0 .533-.031.773-.094a2.82 2.82 0 00.664-.273c.198-.12.37-.258.516-.414.151-.162.273-.334.367-.516a.72.72 0 01.289.32c.062.13.094.269.094.414 0 .204-.06.41-.18.618a1.77 1.77 0 01-.562.57 3.38 3.38 0 01-.961.414c-.391.104-.857.156-1.399.156zm12.535-8.734l.094 2.734h-1.102l-.062-.523a4.308 4.308 0 00-.117-.625 1.136 1.136 0 00-.172-.399.57.57 0 00-.25-.21.974.974 0 00-.375-.063h-.914v5.742c0 .214.028.39.086.531a.851.851 0 00.234.328.881.881 0 00.344.165c.13.03.265.046.406.046h.18V37h-5.008v-.852h.18c.156 0 .302-.015.437-.046a.942.942 0 00.367-.164.884.884 0 00.25-.329c.063-.14.094-.317.094-.53v-5.743h-.93c-.145 0-.27.02-.375.062a.61.61 0 00-.257.211 1.357 1.357 0 00-.172.399 5.482 5.482 0 00-.11.625l-.062.523h-1.102l.094-2.734h8.242zm6.137 0v.914h-.211c-.177 0-.347.016-.508.047a1.174 1.174 0 00-.414.164.83.83 0 00-.289.297.972.972 0 00-.102.468v1.805h1.539a10 10 0 011.407.094c.442.057.833.172 1.171.344.339.166.607.406.805.718.198.308.297.711.297 1.211 0 .36-.075.693-.227 1a2.138 2.138 0 01-.664.797c-.296.224-.671.401-1.125.532-.447.124-.976.187-1.586.187h-5.375v-.852h.172c.396 0 .688-.086.875-.257.188-.172.282-.427.282-.766v-4.813c0-.37-.099-.635-.297-.796-.193-.162-.479-.243-.86-.243h-.172v-.851h5.282zm-.321 7.648c.266 0 .49-.028.672-.086.188-.062.339-.156.453-.28.12-.131.206-.3.258-.509.058-.208.086-.46.086-.758 0-.505-.135-.861-.406-1.07-.266-.213-.641-.32-1.125-.32h-1.141v3.023h1.203zm9.172.078h.187c.12 0 .245-.01.375-.03a.998.998 0 00.368-.15.828.828 0 00.281-.312c.078-.135.117-.317.117-.547V30.25c0-.213-.039-.383-.117-.508a.779.779 0 00-.281-.297.969.969 0 00-.375-.14 2.348 2.348 0 00-.368-.032h-.187v-.851h5.039c1.193 0 2.073.174 2.641.523.573.35.859.857.859 1.524 0 .317-.047.596-.141.836a1.75 1.75 0 01-.39.61 1.814 1.814 0 01-.586.398 3.042 3.042 0 01-.75.195v.078c.307.026.599.083.875.172.281.088.526.216.734.383.214.161.383.364.508.609.125.24.188.529.188.867 0 .35-.068.672-.204.969a1.925 1.925 0 01-.632.75c-.282.208-.641.372-1.079.492-.432.115-.947.172-1.546.172h-5.516v-.852zm4.898-.062c.271 0 .503-.023.696-.07.192-.047.351-.128.476-.243.125-.12.216-.28.274-.484.057-.208.086-.469.086-.781a1.95 1.95 0 00-.11-.703.96.96 0 00-.312-.446 1.189 1.189 0 00-.508-.242 3.003 3.003 0 00-.688-.07h-1.054v3.039h1.14zm1.243-5.438c0-.208-.024-.393-.071-.554a.9.9 0 00-.218-.414.963.963 0 00-.407-.258 1.911 1.911 0 00-.617-.086h-1.07v2.781h1.07c.479 0 .818-.13 1.016-.39.198-.26.297-.62.297-1.079zm12.738 2.032c0 1.505-.354 2.627-1.063 3.367-.703.74-1.739 1.11-3.109 1.11a5.121 5.121 0 01-1.727-.274 3.447 3.447 0 01-1.304-.836c-.355-.37-.628-.836-.821-1.399-.187-.562-.281-1.218-.281-1.968 0-1.506.352-2.625 1.055-3.36.708-.734 1.75-1.101 3.125-1.101.64 0 1.213.09 1.718.273a3.3 3.3 0 011.297.828c.36.37.633.836.821 1.399.192.557.289 1.21.289 1.96zm-5.821 0c0 .567.029 1.067.086 1.5.063.432.159.794.289 1.086.136.291.31.513.524.664.213.145.474.218.781.218.307 0 .565-.073.774-.218.213-.151.385-.373.515-.664.136-.292.232-.654.289-1.086.058-.433.086-.933.086-1.5 0-.573-.031-1.073-.094-1.5-.057-.433-.153-.792-.289-1.078-.13-.287-.302-.5-.515-.641a1.354 1.354 0 00-.782-.219c-.307 0-.567.073-.781.219-.213.14-.385.354-.515.64-.131.287-.224.646-.282 1.079-.057.427-.086.927-.086 1.5zm17.199 3.468V37h-4.843v-.852h.031c.109 0 .224-.01.344-.03a.917.917 0 00.343-.15.804.804 0 00.258-.312c.073-.135.11-.317.11-.547v-5.773h-2.672v5.773c0 .23.034.412.101.547.073.136.162.24.266.313a.922.922 0 00.336.148c.125.021.242.031.351.031h.032V37h-4.844v-.852h.187c.12 0 .245-.01.375-.03a.998.998 0 00.368-.15.828.828 0 00.281-.312c.078-.135.117-.317.117-.547V30.25c0-.213-.039-.383-.117-.508a.779.779 0 00-.281-.297.969.969 0 00-.375-.14 2.348 2.348 0 00-.368-.032h-.187v-.851h10.187v.851h-.187c-.115 0-.24.01-.375.032a.957.957 0 00-.367.14.828.828 0 00-.289.297c-.073.125-.11.294-.11.508v4.86c0 .229.037.41.11.546.078.136.172.24.281.313.115.073.24.122.375.148.135.021.26.031.375.031h.187zm.832 3.844c.12 0 .245-.013.375-.039a.903.903 0 00.368-.14.827.827 0 00.281-.313c.078-.135.117-.318.117-.547v-8.562c0-.245-.029-.44-.086-.586a.725.725 0 00-.57-.492 2.154 2.154 0 00-.422-.04h-.11v-.851h3.133l.289 1.25h.071c.114-.209.247-.399.398-.57.156-.172.333-.32.531-.446a2.57 2.57 0 01.68-.289 3.2 3.2 0 01.836-.101c.531 0 1 .088 1.406.265.412.172.755.443 1.031.813.277.364.485.828.625 1.39.146.563.219 1.232.219 2.008 0 .771-.07 1.438-.211 2-.14.558-.349 1.018-.625 1.383a2.491 2.491 0 01-1.008.813c-.395.171-.854.257-1.375.257-.609 0-1.104-.114-1.484-.343a2.672 2.672 0 01-.914-.938h-.109l.062.719c.016.198.029.409.039.633.016.224.024.419.024.586v1.101c0 .23.036.412.109.547.078.135.172.24.281.313.115.072.237.12.367.14a2 2 0 00.375.04h.352v.85h-5.242v-.85h.187zm5.203-3.984c.537 0 .92-.268 1.149-.805.234-.542.351-1.357.351-2.445 0-1.063-.117-1.878-.351-2.446-.229-.567-.607-.851-1.133-.851-.318 0-.583.073-.797.219a1.42 1.42 0 00-.508.633 3.62 3.62 0 00-.265 1.03c-.052.407-.078.873-.078 1.4 0 .551.026 1.033.078 1.444.052.407.14.745.265 1.016s.292.474.5.61c.209.13.472.195.789.195zm13.942-3.328c0 1.505-.354 2.627-1.063 3.367-.703.74-1.739 1.11-3.109 1.11a5.121 5.121 0 01-1.727-.274 3.447 3.447 0 01-1.304-.836c-.355-.37-.628-.836-.821-1.399-.187-.562-.281-1.218-.281-1.968 0-1.506.352-2.625 1.055-3.36.708-.734 1.75-1.101 3.125-1.101.64 0 1.213.09 1.719.273.51.182.942.459 1.296.828.36.37.633.836.821 1.399.192.557.289 1.21.289 1.96zm-5.821 0c0 .567.029 1.067.086 1.5.063.432.159.794.289 1.086.136.291.31.513.524.664.213.145.474.218.781.218.307 0 .565-.073.774-.218.213-.151.385-.373.515-.664.136-.292.232-.654.289-1.086.058-.433.086-.933.086-1.5 0-.573-.031-1.073-.094-1.5-.057-.433-.153-.792-.289-1.078-.13-.287-.302-.5-.515-.641a1.353 1.353 0 00-.781-.219c-.308 0-.568.073-.782.219-.213.14-.385.354-.515.64-.131.287-.224.646-.282 1.079-.057.427-.086.927-.086 1.5zm11.457 4.476a5.471 5.471 0 01-1.617-.226 3.008 3.008 0 01-1.25-.75c-.349-.35-.62-.805-.812-1.367-.193-.563-.289-1.253-.289-2.07 0-.865.099-1.587.296-2.165.204-.578.48-1.041.829-1.39.354-.35.77-.597 1.25-.743a5.114 5.114 0 011.546-.226c.516 0 .972.044 1.368.133.395.083.726.2.992.351.265.151.466.33.601.54.141.202.211.421.211.655 0 .172-.031.342-.093.508a.965.965 0 01-.321.43c-.151.125-.362.227-.633.305-.265.078-.606.117-1.023.117a5.39 5.39 0 00-.055-.79 2.515 2.515 0 00-.164-.655 1.107 1.107 0 00-.32-.446.729.729 0 00-.5-.172c-.234 0-.445.058-.633.172-.182.11-.341.3-.476.57-.131.271-.232.633-.305 1.086a11.809 11.809 0 00-.102 1.704c0 1.083.149 1.893.446 2.43.297.536.781.804 1.453.804.276 0 .534-.031.773-.094a2.82 2.82 0 00.664-.273c.198-.12.37-.258.516-.414.151-.162.273-.334.367-.516.13.078.227.185.289.32a.94.94 0 01.094.414c0 .204-.06.41-.18.618a1.77 1.77 0 01-.562.57 3.38 3.38 0 01-.961.414c-.391.104-.857.156-1.399.156z" fill="#000"/></svg>